<?xml version="1.0" standalone="no"?><!DOCTYPE svg PUBLIC "-//W3C//DTD SVG 1.1//EN" "http://www.w3.org/Graphics/SVG/1.1/DTD/svg11.dtd"><svg t="1682231044908" class="icon" viewBox="0 0 1024 1024" version="1.1" xmlns="http://www.w3.org/2000/svg" p-id="14366" xmlns:xlink="http://www.w3.org/1999/xlink" width="400" height="400"><path d="M888.289882 29.756235l-545.731765 0c-58.307765 0-105.592471 47.284706-105.592471 105.592471l0 545.731765c0 58.307765 47.284706 105.592471 105.592471 105.592471l545.731765 0c58.307765 0 105.592471-47.284706 105.592471-105.592471l0-545.731765C993.882353 77.040941 946.597647 29.756235 888.289882 29.756235L888.289882 29.756235zM831.488 462.426353l-162.093176 0 0 161.611294L561.754353 624.037647 561.754353 462.426353 400.082824 462.426353 400.082824 354.725647l161.671529 0L561.754353 192.572235l107.700706 0 0 162.153412 162.093176 0L831.548235 462.426353 831.488 462.426353zM831.488 462.426353" p-id="14367" fill="currentColor"></path><path d="M716.077176 862.750118c0 33.430588-27.105882 60.536471-60.536471 60.536471L160.165647 923.286588c-33.430588 0-60.536471-27.105882-60.536471-60.536471L99.629176 367.375059c0-33.430588 27.105882-60.536471 60.536471-60.536471l7.710118 0L167.875765 237.327059 135.710118 237.327059C77.402353 237.327059 30.117647 284.611765 30.117647 342.919529l0 545.731765c0 58.307765 47.284706 105.592471 105.592471 105.592471l545.731765 0c58.307765 0 105.592471-47.284706 105.592471-105.592471l0-32.466824-70.957176 0L716.077176 862.750118 716.077176 862.750118zM716.077176 862.750118" p-id="14368" fill="currentColor"></path></svg>