<?xml version="1.0" standalone="no"?><!DOCTYPE svg PUBLIC "-//W3C//DTD SVG 1.1//EN" "http://www.w3.org/Graphics/SVG/1.1/DTD/svg11.dtd"><svg t="1682235592456" class="icon" viewBox="0 0 1024 1024" version="1.1" xmlns="http://www.w3.org/2000/svg" p-id="35331" xmlns:xlink="http://www.w3.org/1999/xlink" width="400" height="400"><path d="M210.034592 0.35625c476.67071 54.771928 427.350933 480.029794 427.350933 480.029794H749.540229L549.417824 616.248879 343.054127 480.385047H461.608749S549.655264 176.133027 162.374903 6.559632C151.388792 1.73999 198.099716-1.027489 210.034592 0.35625" fill="currentColor" p-id="35332"></path><path d="M532.899749 634.547757H115.191093c-18.257974 0-29.480528 10.907297-25.134769 24.42145l110.809873 340.489625c4.426569 13.594963 22.76236 24.542166 41.099149 24.542166h663.59322c18.255979 0 29.557347-10.947203 25.131776-24.542166l-110.808875-340.489625c-4.425571-13.515151-22.76236-24.42145-41.018339-24.42145H565.936896l-16.281632 11.063928-16.755515-11.063928z" fill="currentColor" p-id="35333"></path><path d="M614.700982 601.471702h164.162146c15.806751 0.076819 30.190854 4.426569 42.758239 11.816155 12.250132 7.507309 23.947567 18.256977 29.716971 35.525283l83.539137 256.553424V497.300186s-3.318181-74.453548-51.293126-74.453548H709.78192c-18.413608-1.225113-33.035152 12.843733-44.497141 33.156865h163.606456L614.700982 601.471702zM238.171286 530.811216c-18.257974 0-33.115961 14.820076-33.115961 33.115961v37.543527h277.656693l-107.41188-70.659488H238.171286z" fill="currentColor" p-id="35334"></path></svg>