<?xml version="1.0" standalone="no"?><!DOCTYPE svg PUBLIC "-//W3C//DTD SVG 1.1//EN" "http://www.w3.org/Graphics/SVG/1.1/DTD/svg11.dtd"><svg t="1682234778431" class="icon" viewBox="0 0 1024 1024" version="1.1" xmlns="http://www.w3.org/2000/svg" p-id="20562" xmlns:xlink="http://www.w3.org/1999/xlink" width="400" height="400"><path d="M784.764343 160.007314h-144.413257V0l144.413257 160.007314z m-224.636343 687.981715l352.987429-351.963429-96.256-96.021943-352.987429 351.992686v95.992686h96.256z m224.636343-144.003658v286.427429c0 17.583543-19.2512 33.5872-36.922514 33.5872H46.723657C29.0816 1024 14.628571 1009.605486 14.628571 990.4128V33.616457C14.628571 14.365257 29.052343 0 46.723657 0h529.466514v223.992686h208.574172v128L399.652571 735.992686v176.010971h176.508343l208.574172-208.018286zM110.884571 848.018286v64.014628h208.603429v-64.014628H110.884571zM945.210514 464.018286L1009.371429 400.003657l-96.256-95.992686-64.190172 63.985372 96.256 95.992686z" fill="currentColor" p-id="20563"></path></svg>