<?xml version="1.0" standalone="no"?><!DOCTYPE svg PUBLIC "-//W3C//DTD SVG 1.1//EN" "http://www.w3.org/Graphics/SVG/1.1/DTD/svg11.dtd"><svg t="1682217346434" class="icon" viewBox="0 0 1029 1024" version="1.1" xmlns="http://www.w3.org/2000/svg" p-id="2840" xmlns:xlink="http://www.w3.org/1999/xlink" width="401.953125" height="400"><path d="M401.408 741.888c-23.552-3.072-47.104-6.656-70.144-13.312 17.92 45.568 42.496 86.528 71.168 117.76-39.936-24.576-73.728-68.096-98.816-124.928-55.296-16.896-101.376-40.448-133.632-68.096 54.272 135.68 187.904 231.936 343.04 231.936 8.704 0 16.896-0.512 25.6-1.024-55.808-15.872-104.448-68.096-137.216-142.336zM300.032 603.136c21.504 6.656 43.008 12.288 66.56 16.896-5.12-31.744-7.68-64.512-7.68-96.256 0-158.72 59.392-293.888 141.824-344.576-65.024 70.656-107.52 184.32-107.52 313.856 0 47.104 5.632 91.136 15.872 133.12 30.72 3.584 62.976 5.12 96.256 3.584 174.08-6.656 319.488-81.408 370.176-178.688-30.72-172.544-181.248-303.616-363.52-303.616-123.392 33.28-216.576 192.512-216.576 384 0.512 24.576 1.536 48.128 4.608 71.68zM386.56 700.928c-5.632-17.92-11.264-36.864-14.848-55.808-23.04-5.12-45.568-11.776-68.096-19.968 3.072 18.944 7.68 37.376 12.288 55.808 21.504 8.192 45.568 15.36 70.656 19.968z" fill="#00706B" p-id="2841"></path><path d="M146.432 559.104c28.16 44.544 76.8 81.92 138.752 109.568-5.632-18.944-10.24-37.376-13.824-56.832-39.424-18.944-70.656-42.496-90.624-69.632 25.088 18.944 53.76 34.816 87.04 48.64-4.608-29.184-6.656-59.392-6.144-89.6 0-146.944 50.688-273.92 124.416-332.8C244.736 220.16 143.872 356.352 143.872 515.584c0 14.848 0.512 29.184 2.56 43.52zM538.112 659.968c-39.936 2.048-80.896 0-120.832-5.632 6.144 19.456 13.312 38.912 21.504 56.32 27.648 3.584 55.808 5.632 84.48 5.632 133.12 0 251.392-39.424 325.12-99.328-52.736 76.288-192 130.56-355.84 130.56-11.776 0-23.04-0.512-34.816-0.512 36.352 62.976 86.528 109.056 143.36 127.488 160.768-39.424 280.064-183.808 281.6-356.864-51.2 77.824-185.856 136.192-344.576 142.336zM211.456 196.096l6.656-6.144-8.192-7.68-5.12 6.144v-6.656h-3.584l-5.12 0.512h-3.584l5.632-5.12-8.192-7.68-4.608 5.12-8.704 8.704-7.68-8.192 9.216-9.216 6.656-6.144-8.192-7.68-6.144 6.656-27.136 27.136-5.12 6.656 8.192 7.68 6.144-6.144 9.216-9.216 6.656 6.656-7.68 7.68-5.632 5.632 8.192 7.68 6.144-6.144 6.656-7.68 10.24 9.216-10.752 9.216-6.144 6.144 7.68 7.68 6.144-6.656 28.16-28.16zM184.32 189.44l5.12-5.12c0 2.56 0 5.12-0.512 7.68 5.12-0.512 7.68-0.512 8.704-0.512s2.56 0.512 3.584 0.512L194.56 198.656 184.32 189.44z" fill="#00706B" p-id="2842"></path><path d="M172.544 245.76l8.192 8.192 8.704-8.704-1.024-1.024 42.496-44.544 2.048 1.024 8.704-9.216-8.704-7.68-49.664-47.104-7.68-7.68-6.656 7.68-46.08 47.616-7.68 6.656 8.192 7.68 49.152 47.104z m2.56-99.328l48.128 45.568-43.008 44.544-48.128-46.08 43.008-44.032zM322.56 97.792c2.048-3.584 4.608-8.192 7.68-13.312-5.12-0.512-8.192-1.024-9.216-1.024-1.024-0.512-2.56-0.512-3.584-1.024l-2.56 6.144c-0.512 2.048-3.072 6.656-7.68 15.872l-4.096-2.048c-2.56-0.512-5.12-1.024-7.68-1.024 2.56-3.072 4.608-6.144 6.656-10.24-2.048 0-3.584-0.512-5.12-0.512l13.312-6.656 8.704-4.608-5.12-9.216-8.704 5.12-38.4 19.456-7.68 3.584 5.12 9.216 7.68-4.608 13.312-6.656c-5.632 7.68-10.752 13.824-15.872 16.896s-8.704 6.144-11.264 7.68c3.584 2.048 6.144 3.584 7.68 4.608 1.024 0.512 2.048 1.024 3.584 2.56 4.608-4.608 7.68-6.656 10.24-9.216 2.048-2.048 5.12-4.608 8.192-8.704l1.024 0.512c-2.56 4.608-5.12 8.192-8.192 11.776-2.56 3.072-5.12 6.144-8.192 8.704-2.56 2.048-5.12 4.608-8.192 6.656 3.072 2.048 5.632 3.072 6.656 3.584 0.512 0.512 2.56 2.048 3.584 3.072 6.144-6.144 11.264-11.264 13.824-15.872 3.072-4.608 6.144-8.704 9.216-14.336 0.512 0 1.024 0.512 2.048 1.024-2.56 4.608-5.632 10.752-10.752 17.408-5.12 6.656-11.776 13.824-21.504 21.504l5.12 2.56c1.024 0.512 3.584 2.048 6.144 4.608l9.216-10.752c3.072-3.072 6.144-6.656 9.216-11.776 3.072-5.632 6.144-9.216 8.192-13.824l0.512 1.024c0.512 1.024 1.024 2.56 2.048 4.608 0.512 1.024 0.512 3.072 0 4.608-0.512 2.048-3.584 3.072-8.704 4.608l3.584 3.072c1.024 0.512 3.072 2.56 5.632 6.144 6.656-3.584 11.264-6.656 11.776-10.24 1.024-2.56 1.024-5.632 0.512-8.192-1.024-3.072-2.56-6.144-3.584-8.704-2.048-3.584-3.072-6.144-4.608-7.68-0.512-1.024-2.048-2.56-2.56-3.584l2.56-3.584c3.584 4.608 7.68 6.656 10.752 9.216 3.072 2.56 6.656 4.608 11.264 5.632 4.608 1.024 10.24 2.56 17.92 3.072 0-3.072 0.512-6.144 1.024-7.68 0-1.024 0.512-3.584 1.024-5.632-5.632 0.512-11.264 0-16.896-1.024-5.632-1.024-10.24-3.072-13.312-5.632 2.048-3.072 0-5.12-1.536-7.168zM399.36 74.752l1.024 10.752 12.288-2.048-0.512-1.024 19.456-3.072 2.56 14.848c0 2.048 0.512 3.584 1.024 5.632 1.024 1.024 2.56 2.56 4.608 3.072s5.12 1.024 8.704 0c3.584-0.512 8.704-1.024 14.848-2.048 5.12-0.512 10.24-1.024 14.336-2.048 3.072-0.512 5.12-1.024 6.656-2.048l3.584-3.584c1.024-2.048 2.56-6.144 3.072-13.312-4.608-0.512-8.704-2.56-13.312-4.608v4.608c0 3.072-0.512 5.12-1.024 5.632-1.024 1.024-3.072 2.56-5.12 2.56-2.048 0.512-5.632 1.024-10.24 2.048l-11.264 1.024c-2.56 0-3.584 0-4.608-0.512-0.512-0.512-1.024-1.024-1.024-2.56l-2.048-10.752 22.016-3.072v2.56l12.288-2.048-1.024-10.24-4.608-39.424-1.024-8.704-8.192 1.024-25.088 3.584-1.024-5.632-1.024-8.192-12.288 2.048 1.024 8.192 0.512 5.632-22.528 3.584-9.216 0.512L394.24 35.84l5.12 38.912zM463.872 51.2l2.048 11.264-22.016 3.072-2.048-11.264 22.016-3.072z m-3.584-22.528l2.048 11.776-22.016 3.072-2.048-11.264 22.016-3.584z m-28.672 39.424l-19.456 3.072-2.048-11.264 19.456-2.56 2.048 10.752z m-5.632-33.792l1.536 11.776-19.456 3.072-2.048-11.264 19.968-3.584z" fill="#00706B" p-id="2843"></path><path d="M246.784 104.96l2.56 5.12 11.264-5.632-2.56-5.12-3.072-6.144 58.88-30.208 3.072 6.144 2.56 5.12 11.776-6.144-3.072-5.12-5.632-10.24-3.072-6.144-9.216 5.12-25.6 13.312c0.512-0.512 0.512-2.048 1.024-3.072-4.608-1.024-8.704-2.56-12.288-3.072-1.024 2.56-2.56 4.608-4.608 6.656-0.512 1.024-2.048 2.56-3.072 3.072 3.072 0.512 5.632 1.024 7.68 2.048l-24.576 12.288-10.752 5.632 3.584 6.144 5.12 10.24zM556.032 82.432l2.048-12.288c2.56 3.072 3.584 5.12 4.608 6.144 0.512 1.024 1.024 2.56 2.048 3.584l8.704-8.704c1.024-1.024 2.56-3.072 3.072-4.608l0.512 3.072s0.512 2.048 0.512 4.608l2.56-2.048c1.024-1.024 4.608-2.56 8.704-3.584-2.048-5.12-3.584-10.24-5.12-14.848l2.048-3.072c0.512-1.024 2.048-3.584 3.072-7.68 2.56 4.608 4.608 6.656 5.12 8.192 0.512 1.024 2.048 3.584 3.072 8.192l-2.56 4.608c-2.048 3.072-3.584 5.632-6.144 8.192-3.072 3.072-6.144 5.632-9.216 8.192 3.072 2.048 5.12 4.608 5.632 5.12 1.024 1.024 2.048 2.56 3.072 3.072 2.048-1.024 4.608-3.072 5.632-4.608s4.608-5.12 8.704-10.752l2.048 6.144c0 0.512 0.512 2.56 1.024 5.632 3.584-3.072 7.68-5.12 11.264-6.656l-1.024-3.584c-2.048-4.608-3.584-9.216-5.12-13.824l2.56-6.144c0.512-2.56 2.048-5.12 3.072-9.216l2.048-6.144c0-0.512 0.512-2.048 1.024-3.072-3.584-0.512-8.192-2.56-12.288-3.584l-0.512 3.072c-0.512 3.072-2.048 6.656-2.56 10.24-1.024-2.56-2.56-5.12-3.584-7.68l-2.56 1.024c-2.56 1.024-5.12 2.56-7.68 2.56l2.048-5.12 1.024-2.56c0.512-1.024 1.024-3.072 1.024-3.584-5.12-1.024-8.704-2.56-11.776-4.608l-0.512 4.608c-0.512 1.024-0.512 3.072-1.024 5.12-0.512 1.024-1.024 3.072-2.048 4.608-1.024-3.072-2.56-5.632-3.584-8.704-3.072 2.048-5.12 2.56-6.144 3.072-1.024 0-2.048 0.512-3.072 0.512l2.56-13.824L624.64 30.72l-10.24 59.392c-0.512 1.024-0.512 2.048-1.024 2.56-0.512 0.512-2.56 0.512-5.12 0-2.048-0.512-4.608-1.024-6.144-2.048l0.512 3.584c0.512 3.072 1.024 5.632 1.024 7.68v4.608c6.144 0.512 11.264 0.512 14.336 0 3.072-0.512 5.12-1.024 5.632-3.072 0.512-2.048 1.024-3.584 2.048-5.632l11.264-64 2.56-11.776-12.288-2.048-58.368-10.24-12.288-2.56-2.048 12.288-10.752 59.904-2.56 13.312 13.312 2.56 1.536-12.8z m8.192-44.544l2.048 3.584c0.512 1.024 2.56 5.12 5.12 11.776-1.024 3.072-3.072 6.144-5.632 8.704-2.048 2.048-4.608 4.608-6.656 6.144l5.12-30.208zM866.816 197.632l8.192 9.216 9.216-7.68-9.216-9.216-29.184-31.744-7.68-8.192-9.216 8.192 8.704 8.192zM691.2 131.072c2.56 1.024 9.216 3.584 19.968 8.704 11.264 5.12 19.456 8.704 25.6 11.264 0 3.584 0.512 5.632 0 6.656v4.608l3.584-1.024c0.512 0 3.584-0.512 11.264-1.024-1.024-10.24-2.56-22.016-5.12-37.376l-2.56 0.512c-3.584 0-6.656 0-10.752-0.512l1.024 6.656c0.512 1.024 0.512 5.12 1.024 10.752-11.264-5.632-23.04-11.264-34.304-16.896 5.632-1.024 10.752-3.072 14.336-5.12 3.584-1.024 7.68-3.072 11.776-5.12l8.192-3.584c0.512-0.512 2.56-1.024 4.608-2.048-3.072-4.608-5.632-8.704-8.192-13.824l-2.048 2.048c-1.024 0.512-3.072 2.56-6.656 5.12-3.584 2.56-6.656 5.12-11.264 6.656-3.584 1.024-7.68 3.072-10.752 4.608-3.584 1.024-6.144 2.048-8.192 2.56l-9.216 0.512 0.512 3.584c0 2.56-0.512 5.632-2.048 11.264 3.584-0.512 6.656 0.512 9.216 1.024zM694.272 91.648c5.632-1.024 11.776-2.56 18.944-5.12 6.144-2.048 11.776-3.584 17.408-6.656 4.608-2.56 10.24-5.632 16.384-9.216-3.072-3.584-6.144-7.68-8.704-11.264l-2.56 2.048c-3.584 3.072-8.704 6.144-13.824 8.704-5.12 2.56-10.752 4.608-16.384 5.632-5.632 1.024-10.752 2.048-14.848 1.024l1.024 3.072c1.536 2.56 2.048 6.656 2.56 11.776zM756.736 116.736c2.048 5.12 5.12 10.752 8.704 14.848 5.12-3.072 8.192-5.632 9.216-6.144 1.024-0.512 2.56-1.024 3.584-2.048-3.072-2.56-5.12-5.12-5.632-6.144s-2.048-3.072-3.072-5.12c-1.024-3.072-2.56-5.632-3.584-8.704-1.024-3.584-2.048-8.192-1.024-12.288 0.512-4.608 1.024-7.68 2.048-9.216 0.512-1.024 1.024-2.56 2.048-3.584s1.024-2.048 2.048-3.584c-4.608-2.048-8.192-4.608-11.776-6.656-2.048 3.584-3.072 8.192-4.608 11.776-0.512 2.56-1.024 5.632-2.048 9.216-0.512 4.608-0.512 8.192 0 12.288 0.512 5.632 1.536 9.728 4.096 15.36z" fill="#00706B" p-id="2844"></path><path d="M895.488 197.632l-46.08 42.496c-1.024 1.024-2.56 2.048-3.072 2.048s-2.048-0.512-3.072-2.048c-0.512 0-1.024-1.024-2.56-2.56-1.024-1.024-2.56-2.56-3.072-3.584l-2.048 3.584c-0.512 2.048-2.048 3.584-3.072 5.12-1.024 2.048-2.048 2.56-3.072 3.584 6.144 5.632 10.752 8.704 13.312 10.24 2.56 1.024 4.608 1.024 5.632 1.024 1.024-0.512 3.072-1.024 5.12-3.584l51.2-47.616 8.192-6.656-8.192-8.192-41.472-44.032-8.704-10.24-8.704 8.192 9.216 10.24 40.448 41.984zM993.792 424.448c-1.024 1.024-4.608 2.56-10.24 3.584l-27.648 5.12c-5.632 1.024-9.216 1.024-11.264 0.512-2.048-1.024-2.56-2.56-3.584-5.632l-8.704 1.024s1.024 3.584 2.56 14.336c2.048 11.264 3.072 17.408 3.072 17.408l8.704-1.024c-0.512-3.072 0-5.12 1.024-6.144 1.024-1.024 5.12-2.56 10.752-3.584l27.648-5.12c5.632-0.512 9.216-1.024 10.752 0 2.048 0.512 3.072 3.072 3.584 5.632l8.704-1.024-5.632-31.744-8.704 1.024c1.024 2.56 0.512 4.608-1.024 5.632zM1000.448 468.992c-1.024 1.024-5.12 2.048-11.264 2.56l-27.648 0.512c-5.632 0.512-9.216 0-11.264-0.512-1.024-1.024-2.56-3.072-2.56-6.144h-8.704l1.024 31.744 8.704-0.512c0-2.56 0.512-5.12 2.56-6.144 1.024-1.024 5.12-2.048 11.264-2.048h6.656l1.024 24.576H962.56c-5.632 0-9.216 0-11.264-1.024-2.048-0.512-2.56-2.56-2.56-5.632h-8.704l1.024 31.744h8.704c0-3.072 0.512-5.12 2.56-6.144 1.024-1.024 5.12-2.048 10.752-2.048l28.16-1.024c5.632 0 9.216 0 10.752 1.024 1.024 1.024 2.56 3.072 2.56 6.144l8.704-0.512-1.024-31.744-8.704 0.512c0 2.56-0.512 5.12-2.048 6.144-1.024 1.024-5.12 2.048-10.752 2.048l-12.288 0.512-1.024-24.576 11.776-0.512c5.632 0 9.216 0 11.264 1.024 2.048 1.024 2.56 3.072 3.072 5.632h8.704l-1.024-32.768h-8.704c0 4.096-0.512 6.144-2.048 7.168zM906.24 345.088l54.272-3.584h1.024c7.68-0.512 11.776 1.024 14.336 5.12l8.192-3.584-11.264-24.576-8.192 3.584c1.024 2.56 2.048 4.608 1.024 5.632 0 1.024-1.024 2.56-3.072 3.072l-0.512 0.512h-1.024l-10.752 2.048-8.192-17.92 7.68-7.68c0.512 0 0.512-0.512 1.024-0.512s0.512-0.512 1.024-0.512c1.024-0.512 2.56-0.512 3.584 0 1.024 1.024 2.56 2.56 3.072 3.584v0.512l9.216-3.584-13.312-28.16-8.192 3.584c1.024 3.584-0.512 7.68-5.12 11.776h-0.512l-41.984 38.4 7.68 12.288z m29.696-24.064l5.632 11.776-22.016 2.56 16.384-14.336zM927.232 364.544c-2.048-0.512-3.072-2.048-4.608-5.12l-8.704 2.56 6.656 23.04 8.192-2.56c-0.512-2.048-0.512-4.608 0.512-6.144 1.024-1.024 4.608-3.072 10.24-4.608l18.944-5.632-33.792 33.28 7.68 26.112 8.704-2.56c-0.512-2.56-0.512-5.12 0.512-6.144 1.024-2.048 4.608-3.072 10.24-4.608L977.92 404.48c5.632-2.048 9.216-2.56 11.264-2.048 2.048 0.512 3.072 2.56 4.608 5.632l8.704-2.56-6.656-23.04-8.192 2.56c0.512 3.072 0.512 5.12-0.512 6.144-1.024 2.048-4.608 3.072-10.24 4.608l-32.768 9.216 45.056-44.544-3.072-11.264-48.64 13.824c-4.608 1.536-8.704 2.048-10.24 1.536z" fill="#00706B" p-id="2845"></path><path d="M831.488 223.232l7.68 8.192 6.656-6.656 13.312-11.776 6.656-6.144-8.192-7.68-21.504-22.528L829.44 168.96l-6.144 6.656-13.312 11.776-7.68 6.144 7.68 7.68 21.504 22.016z m-1.536-37.376l18.944 19.456-10.24 9.216-18.944-19.968 10.24-8.704zM633.344 992.256c-2.048-0.512-3.584-2.56-5.632-3.584l-16.384-15.872c5.12-2.56 8.192-5.632 10.24-8.704 2.048-3.072 2.56-7.68 2.048-12.288-1.024-6.144-4.608-10.752-8.704-13.824-5.12-2.56-11.776-2.56-20.48-1.024l-36.864 6.144 1.024 8.704c3.072-0.512 5.12 0 6.656 1.024 1.024 1.024 2.56 5.12 3.072 10.24l4.608 27.648c0.512 5.632 0.512 9.216 0 10.752-0.512 2.048-2.56 3.072-5.632 3.072l1.024 8.704 32.768-5.632-2.048-9.216c-3.072 0.512-5.12 0-6.144-1.024-1.024-1.024-2.56-4.608-3.072-10.752l-1.024-8.192 6.144-1.024 25.6 27.648 20.48-3.072-1.024-8.704c-2.048 0-4.608-0.512-6.656-1.024z m-29.184-29.184c-2.56 2.56-6.656 4.608-13.312 5.12-1.024 0-2.048 0.512-2.56 0.512h-1.024l-2.048-13.312c-0.512-3.584-0.512-6.144 0-7.68s3.072-2.56 5.632-2.56c4.608-0.512 8.192 0 10.752 1.024 3.072 2.048 5.12 4.608 5.12 7.68 0.512 3.584 0 7.68-2.56 9.216zM797.696 914.432c-2.048-0.512-4.608-3.584-7.68-8.192l-15.872-23.04c-3.072-4.608-5.12-7.68-5.12-9.216s1.024-3.584 4.608-5.632l-5.12-7.68-27.648 18.944 5.12 7.68c2.56-2.048 5.12-2.56 6.656-2.048 2.048 0.512 4.608 3.072 7.68 7.68l15.872 23.04c3.072 4.608 5.12 8.192 5.12 10.24s-1.024 3.584-3.584 5.632l5.12 6.656 27.648-18.944-5.12-7.68c-4.096 2.56-6.144 3.072-7.68 2.56zM700.416 959.488l-36.864-43.008-13.824 5.632 1.024 53.76v1.024c0 6.656-2.048 11.776-5.632 13.824l3.072 8.192 25.6-10.24-3.072-8.192c-2.56 0.512-4.608 1.024-5.632 0.512-1.024-0.512-2.56-1.024-3.072-3.072v-1.024l-1.024-10.24 18.944-7.68 6.656 8.192s0.512 0.512 0.512 1.024c0 0 0.512 0.512 0.512 1.024 0.512 1.024 0.512 2.56 0 3.584-1.024 1.024-2.56 2.048-4.608 2.56h-0.512l3.072 8.192 29.184-11.264-3.072-8.192c-3.584 1.536-7.168 0-11.264-4.608z m-39.936-2.56l-1.024-22.016 13.312 16.896-12.288 5.12zM745.984 945.664c-2.048-0.512-3.584-3.584-6.144-8.704l-18.944-35.84 0.512-0.512c3.584-2.048 7.68-2.56 10.752-2.048 3.584 0.512 7.68 2.56 12.288 6.656l4.608-5.632-16.896-15.872-47.616 25.088 3.584 23.04 6.656-0.512c-0.512-5.632 0-10.752 1.024-13.824 1.024-3.584 3.584-6.144 8.192-8.192l0.512-0.512 18.944 35.84c2.56 5.12 3.584 8.192 3.584 10.24 0 2.048-1.024 3.584-4.608 5.12l4.608 8.192 28.672-14.848-3.584-7.68c-2.048 1.536-4.096 1.536-6.144 0zM522.752 942.592c-10.752 0.512-18.944 3.584-25.088 11.264-6.144 6.656-8.704 16.384-8.704 27.648 0.512 11.264 3.584 20.48 10.752 27.136 6.656 6.656 14.848 10.24 25.6 9.216 10.752 0 18.944-3.584 25.088-11.264 6.144-6.656 9.216-16.384 8.704-27.648-0.512-11.264-3.584-19.968-10.752-27.136-6.144-6.144-14.848-9.216-25.6-9.216z m15.36 58.368c-2.56 5.12-6.656 7.68-12.288 7.68-5.632 0.512-10.24-2.048-13.312-6.656s-5.12-11.776-5.12-21.504c0-8.704 1.024-16.384 3.584-21.504 2.56-4.608 6.656-7.68 12.288-8.192 5.632-0.512 10.24 2.048 12.288 7.68 3.072 4.608 5.12 11.776 5.632 20.48 1.024 9.216-1.024 16.896-3.072 22.016zM463.872 941.568l-34.304-4.608-1.024 8.704c2.56 0 4.608 1.024 5.632 3.072 0.512 1.024 0.512 5.12 0 10.752l-3.584 27.648c-0.512 5.632-2.048 8.704-3.072 10.752-1.024 1.024-3.072 2.048-6.144 1.024l-1.024 8.704 31.232 3.584 1.024-8.704c-3.072-0.512-5.12-1.024-5.632-3.072-0.512-1.024-0.512-5.12 0-10.752l1.024-7.68 11.264 1.024c8.192 1.024 14.336 0.512 18.944-2.56 4.608-3.072 6.656-8.192 8.192-14.336 0.512-6.656-0.512-12.288-4.608-16.896-4.096-3.584-9.728-6.144-17.92-6.656z m5.12 20.992c-0.512 4.608-2.048 6.656-5.12 8.704-3.072 2.048-6.656 2.56-11.776 2.048H449.024l2.048-15.872c0.512-3.584 1.024-6.144 2.56-6.656 0.512-1.024 2.56-1.024 5.12-1.024 3.072 0 6.144 2.048 8.704 4.608 1.536 2.048 2.048 5.12 1.536 8.192zM395.776 927.744l-35.84-10.752-2.56 8.192c3.072 1.024 4.608 2.56 5.632 4.608 0.512 1.024 0 5.12-2.048 10.752l-8.192 26.112c-1.024 5.632-3.072 8.704-5.12 10.24-2.048 1.024-4.608 1.024-6.656 0.512l-2.56 8.704 31.232 9.216 2.56-8.704c-3.072-0.512-5.12-2.048-5.632-3.584-0.512-2.048 0-5.632 1.024-11.264l3.072-8.704 6.144 2.048 11.264 35.84 19.968 6.144 2.56-8.192c-2.048-0.512-3.584-2.048-5.632-3.072-1.024-2.048-2.56-3.584-3.072-6.144l-7.68-20.48c5.632 0 10.24-1.024 13.312-3.584s5.632-5.632 6.656-10.752c2.048-6.144 1.024-11.776-2.048-16.384-2.048-5.12-8.192-8.192-16.384-10.752z m3.072 22.016c-1.024 3.584-3.072 6.144-6.656 6.656-3.584 1.024-8.192 0.512-14.336-1.024-0.512-0.512-2.048-0.512-2.048-0.512-0.512 0-0.512-0.512-1.024-0.512l3.584-12.288c0.512-3.584 2.048-5.632 3.072-6.656 1.024-0.512 3.584-0.512 6.144 0 4.608 1.024 7.68 3.072 9.216 5.632 2.56 1.536 3.584 5.12 2.048 8.704zM1011.712 557.056c-3.072-5.632-8.192-10.752-14.848-15.872l-5.12 7.68c4.608 3.072 8.192 6.656 10.752 11.264 2.56 4.608 3.072 8.192 2.56 11.776-0.512 5.632-3.584 10.752-8.704 12.288-5.632 2.56-12.288 3.584-21.504 2.56-8.704-1.024-14.848-3.584-19.456-7.68-5.12-3.584-6.656-8.192-5.632-13.824 0.512-4.608 2.56-7.68 6.656-11.264 4.608-3.072 9.216-6.144 15.872-7.68l-1.024-6.656-27.648 5.12-0.512 5.12 4.608 2.048c-2.048 2.56-3.072 5.12-4.608 7.68-1.024 2.56-2.048 5.12-2.56 7.68-1.024 9.216 1.024 17.92 7.68 25.088 6.144 7.68 14.336 11.264 25.6 13.312 11.776 1.024 21.504-0.512 28.672-5.632 7.68-5.12 12.288-13.312 13.824-23.04-1.024-7.68-1.536-14.336-4.608-19.968zM976.384 676.352c-2.048 0.512-5.12 0-10.752-2.048l-11.264-3.584 1.024-3.072c0.512-2.56 2.56-4.608 5.12-5.632 2.56-0.512 5.632-0.512 10.24 0l2.048-5.632-31.744-10.752-2.048 5.632c4.608 2.048 6.656 3.072 7.68 5.12 1.024 2.048 0.512 4.608-0.512 8.192l-0.512 2.56-9.216-3.072c-3.584-1.024-5.632-2.56-6.656-4.608-0.512-1.024-0.512-3.584 0.512-6.144 1.024-5.12 4.608-8.704 8.192-11.264 3.584-3.072 8.704-5.632 14.336-6.656l-1.024-6.144-23.04 2.048-17.408 51.2 8.192 3.072c1.024-3.072 3.072-5.12 4.608-5.12 2.048-0.512 5.12 0 10.752 2.048l26.112 8.704c5.632 2.048 8.704 3.072 9.216 5.12 1.024 1.024 1.024 3.584 0.512 6.656l8.192 2.56 10.752-31.232-8.704-3.072c-1.024 2.56-2.56 4.096-4.608 5.12zM66.56 339.968c5.12 2.56 10.24 3.072 14.336 2.048 4.608-1.024 9.216-5.12 14.336-11.264l2.56-2.56c7.68-8.704 12.288-11.776 15.872-10.752 2.048 0.512 3.072 2.56 3.584 5.12 0.512 2.048 0 5.12-1.024 7.68-2.048 3.072-5.12 6.144-8.704 8.192-3.584 2.56-8.704 3.072-13.824 3.072l-0.512 6.656 22.016 4.608 2.56-5.632-3.072-2.56c2.56-1.024 4.608-3.072 6.144-5.12 2.048-2.048 3.584-4.608 5.12-6.144 3.072-5.632 3.072-11.776 1.024-17.408-2.048-5.632-6.144-10.24-11.776-13.312-3.072-1.024-6.144-2.048-9.216-2.048-3.072 0-5.632 0.512-8.704 2.048-1.024 0.512-3.072 2.048-5.12 4.608-2.56 2.048-5.12 4.608-8.192 8.192-0.512 0.512-1.024 1.024-2.048 2.56-6.144 7.68-11.264 10.24-14.848 8.704-2.56-1.024-3.584-3.584-4.608-6.144-0.512-3.072 0-6.144 1.024-8.704 2.048-4.608 5.632-7.68 10.752-10.24 5.632-2.56 11.776-3.072 17.92-3.072l0.512-8.192-27.648-5.12-2.048 5.12 3.584 2.56c-2.56 2.048-5.12 3.584-7.68 6.144s-3.584 5.12-5.632 8.192c-3.072 6.144-3.584 12.288-1.024 18.944 3.072 5.632 7.68 10.752 14.336 13.824zM942.592 699.392c-10.752-4.608-19.968-5.632-28.672-2.56-9.216 2.56-16.384 9.216-20.48 17.92-4.608 9.216-5.12 18.944-1.024 27.648 3.584 8.704 10.24 15.872 20.48 19.968 10.752 4.608 19.968 5.632 28.672 3.072 9.216-3.072 16.384-9.216 20.48-17.92 4.608-9.216 5.12-18.944 1.024-27.136-3.072-9.728-9.728-15.872-20.48-20.992z m11.264 43.52c-2.56 5.12-6.144 7.68-12.288 8.192-5.632 0-12.288-1.024-21.504-5.12-8.192-3.584-13.824-8.192-17.408-13.312-3.072-5.12-3.584-10.24-1.024-14.848 2.048-5.12 6.144-7.68 11.776-8.192 5.632-0.512 13.312 1.024 21.504 5.12 8.192 3.584 13.824 8.192 16.896 12.288 3.584 6.144 4.096 11.264 2.048 15.872zM823.296 830.464c-9.216-2.048-19.456 0.512-27.136 6.656-8.704 6.144-13.312 13.824-14.336 23.552-1.024 9.216 2.048 18.944 8.704 27.648s14.848 14.336 24.576 16.384c9.216 1.024 17.92-0.512 27.136-6.656 8.192-6.144 13.312-13.824 14.336-23.552 1.024-9.216-2.048-17.92-8.704-27.648-7.168-9.216-15.36-14.336-24.576-16.384z m12.8 59.392c-4.608 3.072-10.24 3.584-14.848 1.024-5.632-2.048-10.752-6.656-16.384-13.824-5.632-7.68-8.704-13.824-9.216-19.456-0.512-5.632 1.024-10.752 5.632-13.824 4.608-3.072 9.216-3.584 14.336-1.024 5.632 2.048 10.752 6.656 16.384 14.336 5.12 6.656 8.192 13.824 8.704 19.456 2.048 6.144-0.512 10.24-4.608 13.312zM868.864 778.752c-0.512-2.048 0-3.584 2.048-6.144l-6.656-5.632-15.872 17.92 6.656 5.632c2.048-2.048 4.608-3.072 5.632-2.56 2.048 0 5.12 2.048 9.216 5.632l14.848 12.288-46.08-9.216-17.92 20.48 6.656 5.632c2.048-2.048 4.608-3.072 5.632-3.072 2.048 0 5.12 2.048 9.216 5.632l21.504 17.408c4.608 3.584 6.656 6.144 7.68 8.192s0 3.584-2.048 6.144l6.656 5.632 15.872-18.944-6.656-5.632c-1.024 2.048-3.584 3.072-5.632 3.072-2.048 0-5.12-2.048-9.216-5.632l-25.6-21.504 62.464 11.776 7.68-8.704-38.4-31.744c-5.12-2.048-7.68-4.608-7.68-6.656zM48.128 601.088c-6.144-2.56-11.264-5.632-15.872-10.24-4.608-4.608-6.656-8.704-6.656-13.824 0-3.072 0-5.12 1.024-5.632 0.512-1.024 3.072-2.56 6.656-2.56l16.896-2.048 0.512 3.072c0.512 2.56 0 4.608-2.048 6.144-2.048 1.024-5.12 2.56-9.216 3.584l0.512 6.656 32.768-3.584-0.512-6.656c-4.608 0.512-7.68 0-9.216-1.024-2.048-0.512-2.56-3.072-3.072-6.144l-0.512-3.072 10.24-1.024c3.584-0.512 6.144-0.512 7.68 0.512 1.024 0.512 2.048 2.56 2.56 5.632 0.512 5.12 0 9.216-2.56 13.824-2.56 4.608-6.144 8.704-11.264 12.288l4.608 5.632 20.48-11.264-6.656-53.248-8.704 1.024c0.512 2.56 0 5.12-2.048 6.144-1.024 1.024-5.12 2.048-10.752 2.56l-27.648 3.072c-5.632 0.512-9.216 0.512-11.264 0s-2.56-2.56-3.072-5.632l-8.704 1.024 6.656 54.272 25.6 6.656 3.584-6.144zM23.04 510.464c2.048-0.512 5.12-1.024 11.264-1.024l40.448 2.048v0.512c0 3.584-1.024 7.68-3.584 10.752-2.56 2.56-6.144 5.12-11.776 7.68l2.56 6.144 22.528-6.144 2.56-53.248-22.016-8.704-3.072 6.144c5.12 3.072 8.704 5.632 11.264 8.704 2.56 3.072 3.072 6.656 3.072 10.752l-0.512 1.024-39.936-2.048c-5.632 0-9.216-1.024-10.752-2.56-1.024-1.024-2.048-3.072-2.048-6.144H12.288l-1.024 32.768 8.704 0.512c0.512-4.096 1.024-6.144 3.072-7.168zM74.24 699.392c1.024 0 3.072 2.048 5.12 4.608l8.192-3.072-10.752-27.648-8.192 3.072c0.512 2.56 1.024 5.12 0.512 6.144s-2.56 3.072-4.608 3.584c-3.072 1.024-6.656 1.024-10.24 0-3.072-1.024-5.12-3.584-6.656-7.68-2.048-5.12-1.024-8.704 2.56-13.312 3.584-4.608 9.216-7.68 17.408-11.264 8.704-3.072 14.848-4.608 20.48-3.584 5.632 0.512 8.704 3.584 10.752 8.192 1.024 3.584 1.024 7.68 0 11.264-2.048 4.608-5.12 8.704-10.24 13.824l5.632 6.144 20.48-14.336-2.56-5.632h-3.072c0.512-5.12 0-10.24-1.024-14.848-3.072-8.192-10.24-14.848-17.92-17.92-8.704-3.072-17.92-3.072-28.16 1.024-11.264 4.608-18.944 10.24-23.552 17.408-4.608 7.68-5.12 16.384-2.048 23.552 1.024 3.584 3.072 6.144 5.12 8.704 2.56 2.56 4.608 4.608 8.192 6.144l-5.12 4.608 3.584 8.704 17.408-6.656c4.096-0.512 6.656-1.024 8.704-1.024zM345.088 920.064c-3.072-8.704-9.216-15.872-18.944-19.968-9.216-4.608-17.92-5.12-27.648-1.024-8.704 3.584-15.872 10.24-20.48 19.968-5.12 10.24-5.632 19.968-3.072 28.672 3.072 9.216 9.216 15.872 18.944 20.48 9.216 4.608 18.944 5.12 27.648 1.024 8.704-3.072 15.872-10.24 20.48-19.968 5.12-10.24 6.144-19.968 3.072-29.184z m-19.456 21.504c-3.584 8.192-8.192 13.824-13.312 16.896-5.12 3.072-10.24 3.584-14.336 1.024-5.12-2.56-7.68-6.144-8.192-12.288-0.512-5.632 1.024-12.288 5.12-20.48 3.584-8.192 8.192-13.824 13.312-16.896 5.12-3.072 10.24-3.584 14.848-1.024 5.12 2.048 7.68 6.144 8.192 11.776 0 5.632-1.024 12.8-5.632 20.992zM31.744 463.872l56.32-8.192 3.072-14.336-47.104-27.648c-0.512 0-0.512-0.512-1.024-0.512-6.144-3.072-9.216-7.68-8.704-11.776L25.6 399.36l-5.12 26.112 8.704 2.048c0.512-3.072 1.024-4.608 2.048-5.632 1.024-1.024 2.56-1.024 4.608-1.024 0 0 0.512 0.512 1.024 0.512 0 0 0.512 0 1.024 0.512l8.704 4.608-3.584 19.968-10.752 1.024H29.184c-1.024 0-2.56-1.024-3.072-2.048-0.512-1.024-0.512-2.56 0-5.12l-8.704-2.048-5.632 31.232 8.704 2.048c2.048-3.584 5.632-6.144 11.264-7.68z m23.04-31.744l19.456 10.752-22.016 2.048 2.56-12.8zM40.448 382.464c2.048-0.512 5.632 0 10.752 2.048l38.912 12.288v1.024c-1.024 3.584-3.584 6.656-6.656 8.704-3.072 2.048-7.68 3.072-13.824 4.608l0.512 6.144h23.552l16.896-50.688-18.944-13.312-4.608 5.12c4.608 3.584 7.68 7.68 8.704 10.752 1.024 3.584 1.024 7.68 0 11.264v0.512L56.832 368.64c-5.632-2.048-8.704-3.584-10.24-5.12-0.512-1.536-0.512-4.096 0-7.168l-8.704-2.56-10.24 30.72 8.704 3.072c1.024-3.072 2.048-4.096 4.096-5.12zM178.688 780.8l-6.656 5.632c2.048 2.048 2.56 3.584 2.048 5.632-0.512 2.048-3.072 4.608-7.68 8.192l-21.504 16.896c-5.12 3.584-8.192 5.632-10.24 5.632-2.048 0-3.584-0.512-5.632-3.072l-6.656 5.632 19.968 25.088c8.192 9.216 16.384 14.336 25.088 15.872 8.704 1.024 17.92-2.048 27.136-9.216 8.704-7.68 13.824-15.872 14.848-24.576 0.512-8.704-2.56-17.92-10.752-27.136l-19.968-24.576z m16.384 45.568c-1.024 5.632-5.632 11.264-12.288 16.896-6.144 5.632-12.288 8.192-18.944 8.192-5.632 0.512-11.264-2.56-14.848-6.656-2.048-2.048-2.56-3.584-2.56-5.632 0-1.024 2.048-3.072 5.12-5.632l28.16-22.528c3.072-2.56 5.632-3.584 6.656-3.584 1.024 0 3.072 1.024 5.12 3.072 4.096 4.608 4.608 10.24 3.584 15.872zM97.792 776.192c0-2.048 0.512-3.584 2.048-6.144l9.216-19.968c3.584 3.584 7.68 5.632 11.776 6.144 3.584 0.512 8.192-0.512 12.288-2.56 6.144-3.072 9.216-7.68 10.24-12.288 0.512-5.632-1.024-11.776-5.632-19.968l-17.92-32.768-8.192 4.608c1.024 2.56 2.048 5.12 1.024 6.144-0.512 2.048-3.584 3.584-8.704 6.656l-25.088 13.312c-5.12 2.56-8.192 3.584-10.24 3.584-2.048 0-3.584-1.024-5.12-4.608l-7.68 4.608 15.872 28.672 8.192-3.584c-1.024-3.072-2.048-5.12-0.512-6.656 0.512-1.024 3.584-3.584 8.704-6.144l8.192-4.608 3.072 5.632-17.408 32.768 10.24 17.92 7.68-3.584c-1.024-2.56-2.048-5.12-2.048-7.168z m18.944-57.344c3.072-2.048 5.632-2.56 7.68-2.56 1.024 0.512 3.072 2.048 4.608 4.608 2.048 3.584 3.072 7.68 2.56 10.752s-2.56 5.632-5.632 7.68c-3.584 2.048-6.656 2.048-10.24 0s-6.144-5.12-9.216-10.752c-0.512-0.512-0.512-1.024-1.024-2.048-0.512-0.512-0.512-0.512-0.512-1.024l11.776-6.656zM278.016 907.776l9.216-26.112-3.584-3.072-3.584 3.072c-1.024-2.56-2.56-5.12-4.608-7.68l-5.632-5.632c-7.68-5.632-16.384-8.192-25.6-6.144-9.216 2.048-17.408 6.656-23.552 15.872-6.656 8.704-10.24 17.92-9.216 27.648 0.512 9.216 5.12 17.408 13.824 23.04 5.632 4.608 11.776 6.656 18.944 6.656 6.144 0.512 13.824-2.048 20.48-5.632l-4.608-7.68c-5.12 2.56-10.24 3.584-14.848 3.072-4.608 0-8.704-1.024-11.776-3.584-4.608-3.072-6.656-8.704-6.656-14.336 0-6.144 3.072-12.288 8.704-18.944 5.12-6.656 10.752-11.264 16.384-13.312 5.632-2.048 10.752-1.024 14.848 2.048 3.072 2.56 5.12 6.144 6.144 11.264 0.512 5.632 0 11.264-1.024 16.896l6.144 2.56zM121.344 806.912c0.512-2.048 3.072-4.608 8.192-7.68l22.528-16.384c4.608-3.072 8.192-5.12 9.216-5.12 2.048 0 3.584 1.024 5.632 3.584l6.656-5.632-19.456-26.112-7.68 5.12c2.048 2.56 2.56 5.12 2.048 6.656-0.512 2.048-3.072 4.608-7.68 7.68l-23.04 16.384c-4.608 3.072-8.192 5.12-9.216 5.12-2.048 0-3.584-1.024-5.632-3.584l-6.656 5.12 19.456 26.112 7.68-5.12c-2.048-2.56-3.072-4.096-2.048-6.144z" fill="#00706B" p-id="2846"></path><path d="M112.64 516.096c0 220.672 179.2 400.384 400.384 400.384s400.384-179.712 400.384-400.384-179.712-400.384-400.384-400.384C291.84 115.712 112.64 294.912 112.64 516.096z m400.384-392.192c216.064 0 392.192 175.616 392.192 392.192 0 216.064-175.616 391.68-392.192 391.68-216.064 0-391.68-175.616-391.68-391.68-1.024-216.064 175.104-392.192 391.68-392.192z" fill="#00706B" p-id="2847"></path></svg>