<?xml version="1.0" standalone="no"?><!DOCTYPE svg PUBLIC "-//W3C//DTD SVG 1.1//EN" "http://www.w3.org/Graphics/SVG/1.1/DTD/svg11.dtd"><svg t="1681815338451" class="icon" viewBox="0 0 1025 1024" version="1.1" xmlns="http://www.w3.org/2000/svg" p-id="3338" xmlns:xlink="http://www.w3.org/1999/xlink" width="400.390625" height="400"><path d="M901.536109 192.115872L854.105814 235.014283a1.9827 1.9827 0 0 1-1.879703 2.085697h-0.257493c-2.085697 0-2.085697 0-4.222893-2.137196l-6.463086-6.617582v4.274392c-2.085697 2.085697-2.085697 4.274391-4.222892 4.274391 0 2.085697-2.188694 2.085697-2.188695 4.222893a155.474552 155.474552 0 0 0 12.874673 10.299738h6.179843l4.274392-4.274391 51.498692-47.430296 8.651781-8.111044-8.548783-8.548783-40.812714-42.898411-8.497284-10.299738-10.299739 8.497284 10.891974 10.840475z" fill="#FFFFFF" p-id="3339"></path><path d="M871.512372 191.39489l8.497284 8.497285 8.548783-8.548783-8.548783-8.497285-30.075236-32.212432-8.497285-8.497284-8.548783 8.548783 8.548783 8.548783z" fill="#FFFFFF" p-id="3340"></path><path d="M759.760209 109.743714h-0.231744a53.455643 53.455643 0 0 0 8.806277 14.96037 37.722792 37.722792 0 0 1 8.497284-6.463086c2.188694 0 2.188694 0 4.274391-2.188695l-6.411587-6.411587a7.390062 7.390062 0 0 1-2.137196-4.222893 26.985315 26.985315 0 0 1-4.32589-8.600281 33.47415 33.47415 0 0 1-2.137196-12.874673 15.990344 15.990344 0 0 0 2.137196-8.548783 6.669081 6.669081 0 0 0 2.188695-4.222893c0-2.137196 2.137196-2.137196 2.137195-4.274392l-12.874673-6.360088a90.895192 90.895192 0 0 1-4.274391 12.874673v8.497284a13.466908 13.466908 0 0 0 0 12.874673 52.013679 52.013679 0 0 0 4.351639 14.960371z" fill="#FFFFFF" p-id="3341"></path><path d="M834.9483 217.81372l8.394287 8.368537 6.411587-6.411587 12.874673-12.874673 8.548783-6.566084-8.548783-8.548782-21.320458-21.26896-6.411588-8.497285-6.411587 6.128345-15.011869 12.874673-6.411587 6.746329 6.411587 6.66908z m-0.283243-38.881513l19.440757 19.440756-10.299739 10.299739-19.440756-19.440757z" fill="#FFFFFF" p-id="3342"></path><path d="M916.47073 341.668075h54.562865c8.600282-2.137196 12.874673 0 15.449608 4.32589l8.497284-2.188694-10.299739-25.749347-8.497284 2.137196c2.137196 4.274391 2.137196 4.222893 2.137196 6.411587s-2.137196 2.188694-4.274392 2.188695l-2.137195 2.188694h-10.299739l-6.411587-19.440756 8.497284-6.411587a2.162945 2.162945 0 0 0 1.544961-0.592235 2.085697 2.085697 0 0 0 0.592235-1.544961h4.274391c0 2.137196 2.188694 2.137196 2.188695 4.274391v2.317441l8.368537-4.171394-10.763226-30.075236-8.497285 4.274391c0 3.991149-2.137196 6.179843-6.411587 10.299739l-45.087105 38.881513z m29.972239-23.663649l6.463086 13.260913h-23.431905z" fill="#FFFFFF" p-id="3343"></path><path d="M1003.967009 425.585194a93.418628 93.418628 0 0 1-10.299739 2.137196l-28.041038 6.30859h-10.299738c-2.137196-2.137196-4.274391-2.137196-4.274392-6.411588l-8.548783 2.188695 6.514585 32.160933 8.497284-2.034198c-2.137196-2.188694 0-4.274391 0-6.463086 3.450412-0.875478 6.900825-1.596459 10.299739-2.137196l27.526051-6.540334h10.299738c2.085697 2.137196 4.222893 2.137196 4.222893 6.411588l8.497284-2.137196-4.222893-32.212432-10.454234 2.188694c2.343191 2.137196 0.154496 4.222893 0.154496 6.411587" fill="#FFFFFF" p-id="3344"></path><path d="M935.756991 363.246027a7.570308 7.570308 0 0 1-2.188695-4.222893l-10.299738 2.137196 8.548783 23.61215 6.411587-2.137195c0-4.274391 0-6.411587 2.137196-6.411588 0-2.137196 4.171394-4.274391 10.299738-4.274391l19.440756-6.411587-36.486823 34.298129 8.986522 25.749346 8.548783-2.188694v-6.514585c2.034198-2.137196 6.257091-2.137196 10.299738-4.274391l27.732046-8.497285c6.30859 0 8.445786-2.137196 10.299738 0a4.866626 4.866626 0 0 1 4.274392 4.274392l8.548783-2.188695-6.746329-23.61215-8.548783 2.137196v6.463086a12.565681 12.565681 0 0 1-10.299738 4.222892l-34.349628 8.497285 47.481794-42.898411-2.137195-12.874673-49.361497 12.874673a37.439549 37.439549 0 0 1-12.668678 2.137196" fill="#FFFFFF" p-id="3345"></path><path d="M699.326494 966.450211l-36.435325-42.898411-15.011869 4.222893 1.95695 55.489841c0 8.600282-2.188694 12.874673-6.411587 15.011869l4.222893 8.497284 25.749346-10.63448-4.274391-6.411587h-6.411588a7.724804 7.724804 0 0 1-2.188694-4.32589v-2.111446l-2.137196-8.497285 19.440757-8.548783 6.617582 8.368538c2.188694 0 2.188694 0 2.188694 2.188694v4.428888a7.724804 7.724804 0 0 1-4.274391 2.137196l2.137195 8.548783 29.688996-10.299739-1.982699-8.626031a18.462281 18.462281 0 0 1-12.720177-6.463086m-40.915711-2.291692v-21.320458l12.874673 17.046067z" fill="#FFFFFF" p-id="3346"></path><path d="M64.57936 704.218869c2.137196 0 2.137196 2.137196 4.222893 4.274392l8.317039-4.428888-10.891974-27.732046-8.497284 4.222893 0.823979 0.823979a4.042647 4.042647 0 0 1-0.823979 5.587608 7.724804 7.724804 0 0 1-4.274391 2.137196 9.707504 9.707504 0 0 1-10.299739 0c-2.188694 0-4.32589-4.274391-6.463086-6.411587a17.483806 17.483806 0 0 1 2.36894-15.011869 69.291491 69.291491 0 0 1 19.440757-10.299738 38.624019 38.624019 0 0 1 21.474954-2.137196 11.664454 11.664454 0 0 1 10.299739 6.411587v12.874673a57.601287 57.601287 0 0 1-10.299739 12.874673l6.411588 6.411588 19.440756-14.960371-2.137196-4.274391-2.137196 0.38624v-8.935023c0-2.188694-2.188694-4.222893-2.188694-6.411587a34.426876 34.426876 0 0 0-19.440756-19.440757 41.816938 41.816938 0 0 0-27.732046 0 43.130155 43.130155 0 0 0-23.612151 19.440757 23.019916 23.019916 0 0 0-2.188694 23.61215 11.123718 11.123718 0 0 0 4.222893 8.548783c2.137196 2.137196 6.411587 4.274391 8.548783 6.411587l-4.274392 4.222893 4.866627 10.454235 17.046067-8.548783z" fill="#FFFFFF" p-id="3347"></path><path d="M948.502917 704.527862a38.881513 38.881513 0 0 0-30.075236-4.325891 41.842688 41.842688 0 0 0-19.440757 19.440757 26.290082 26.290082 0 0 0-2.188694 27.732046 51.1897 51.1897 0 0 0 21.423456 21.423456 42.512171 42.512171 0 0 0 27.93804 2.240193 28.092537 28.092537 0 0 0 21.423456-19.440757 41.945685 41.945685 0 0 0 2.188695-27.732045 38.443774 38.443774 0 0 0-21.26896-19.337759z m10.788976 42.615168a11.793201 11.793201 0 0 1-12.874673 8.600281 53.919131 53.919131 0 0 1-21.423456-4.274391 57.755784 57.755784 0 0 1-17.097566-12.874673c-2.137196-6.463086-4.274391-10.737477-2.137196-15.011869 4.32589-4.274391 6.463086-8.548783 12.874673-8.548783a43.027158 43.027158 0 0 1 21.423456 4.274391 39.602494 39.602494 0 0 1 17.046068 12.874673 13.544156 13.544156 0 0 1 2.085697 15.011869z" fill="#FFFFFF" p-id="3348"></path><path d="M35.946087 603.513176a38.624019 38.624019 0 0 1-15.063367-10.299738 44.88111 44.88111 0 0 1-8.497284-12.874673c0-4.274391 0-6.411587 2.137195-6.411587 0-2.188694 4.274391-2.188694 6.411587-2.188695l17.046068-2.137196 2.188694 2.137196c0 2.188694-2.188694 4.274391-2.188694 6.411587a16.14484 16.14484 0 0 1-10.299739 4.274392l2.137196 6.411587 32.212432-4.222893v-6.66908h-10.299738c0-2.137196-2.137196-4.274391-2.137196-6.411588v-4.274391h10.299738c2.137196-2.137196 6.411587-2.137196 6.411587 0 2.188694 0 2.188694 2.188694 2.188695 6.411587a14.290887 14.290887 0 0 1-2.188695 12.874673 58.888755 58.888755 0 0 1-10.299738 12.874673l4.222893 6.411588 21.474955-13.02917-6.875076-53.481392-10.685979 1.931201c2.137196 2.188694 0 4.274391 0 6.411587a97.203782 97.203782 0 0 1-10.299738 2.188695l-30.075236 2.188694a9.707504 9.707504 0 0 1-10.299739 0c-2.188694 0-2.188694-2.188694-2.188694-4.377389H2.574935l5.742104 55.876082 25.749346 6.360088z" fill="#FFFFFF" p-id="3349"></path><path d="M88.577751 781.930396c0-2.137196 2.137196-4.222893 2.137196-6.411587l10.454234-21.423456c3.991149 4.274391 6.128344 6.411587 10.299739 6.411587a14.18789 14.18789 0 0 0 12.874673-2.137195 13.698652 13.698652 0 0 0 10.299738-12.874674 54.073627 54.073627 0 0 0-6.411587-19.440756c-16.479582-34.014886-17.097566-34.401127-17.097566-34.401127l-8.162543 4.222893a16.402334 16.402334 0 0 1 2.034199 8.703279c-1.853953 0-3.991149 2.188694-10.299739 6.411587l-23.61215 13.02917c-6.179843 2.085697-8.214041 4.274391-10.299739 4.274391s-4.274391-2.085697-6.411587-4.274391l-6.463086 4.274391 15.269363 27.783545 8.548783-4.274392a7.724804 7.724804 0 0 1-2.188695-6.411587 23.174412 23.174412 0 0 1 10.299739-6.411587l6.411587-4.274392 4.274391 6.463086-17.046067 32.160934 8.883525 19.440756 8.497284-4.274391a7.982297 7.982297 0 0 1-2.36894-6.514585m18.307785-57.961778a16.067592 16.067592 0 0 1 6.463086-2.137196c2.137196 0 4.222893 2.137196 6.411587 4.274391a19.440756 19.440756 0 0 1 2.137196 10.299739c-2.137196 2.188694-2.137196 4.274391-6.411587 6.463086a6.617582 6.617582 0 0 1-8.548783 0 25.517602 25.517602 0 0 1-10.299739-10.299739v-2.188694h-2.137195z" fill="#FFFFFF" p-id="3350"></path><path d="M111.752163 813.499095c0-2.085697 4.222893-6.30859 8.497284-8.497284l23.61215-17.097566c4.222893-2.137196 6.411587-4.222893 8.548783-4.222893s4.274391 2.137196 6.411587 4.222893l6.257092-6.411588-19.440757-25.749346-6.669081 4.557634a7.8793 7.8793 0 0 1 2.188695 6.411588l-8.548783 8.548783-23.612151 16.91732a36.692818 36.692818 0 0 1-10.299738 4.274392l-4.351639-4.197144-8.548783 6.411587 19.440756 25.749347 8.445786-4.325891a15.732851 15.732851 0 0 1-1.9827-6.411587" fill="#FFFFFF" p-id="3351"></path><path d="M10.505733 511.124522a76.501308 76.501308 0 0 1 12.874673-2.137196l40.812714 2.240194v2.188694c0 4.171394-2.137196 6.30859-4.222893 10.299739a34.452625 34.452625 0 0 1-12.874673 6.463085l2.034199 6.617582 23.818145-6.411587 2.137196-53.455643-21.577953-8.368537-2.137195 6.411587a21.26896 21.26896 0 0 1 10.299738 8.497284 15.990344 15.990344 0 0 1 2.137196 10.299739l-40.786964-2.008449c-6.257091 0-8.445786 0-10.299739-2.137196-2.137196 0-2.137196-2.085697-2.137196-4.274391l-8.368537-2.137196L0 517.51036h8.317039a9.372762 9.372762 0 0 1 2.188694-6.385838" fill="#FFFFFF" p-id="3352"></path><path d="M30.075236 384.978475a37.594045 37.594045 0 0 1 12.874673 2.137196l38.881513 12.874673a21.629451 21.629451 0 0 1-8.935023 10.299738 71.814927 71.814927 0 0 1-12.874673 2.188695v8.548783h23.663649l19.440757-51.498693-19.440757-14.831623-4.171394 4.480386a44.623617 44.623617 0 0 1 8.497284 12.874673 23.174412 23.174412 0 0 1-2.137195 10.299739l-38.881513-12.874673c-4.222893-2.085697-8.548783-2.085697-8.548783-4.222893a7.853551 7.853551 0 0 1-2.137196-6.463086l-8.600281-4.094146-10.299739 32.366928 8.548783 2.137196z" fill="#FFFFFF" p-id="3353"></path><path d="M169.121706 785.947294l-6.30859 6.566084a6.875075 6.875075 0 0 1 2.36894 4.32589c0 2.085697-2.137196 6.360089-8.548783 8.548783l-21.423456 19.440756-8.548783 4.274392a7.724804 7.724804 0 0 1-6.411587-2.137196l-6.411587 4.274391 18.90002 25.59485a45.602092 45.602092 0 0 0 25.749346 17.046068h0.334741a41.688192 41.688192 0 0 0 27.732046-10.299739 40.58097 40.58097 0 0 0 14.57413-23.766646 38.366526 38.366526 0 0 0-10.299738-27.732046z m17.406558 47.378797c0 4.171394-4.377389 10.63448-12.874673 17.046068a77.454033 77.454033 0 0 1-19.440757 8.497284 27.371555 27.371555 0 0 1-15.063367-8.497284 6.617582 6.617582 0 0 1-2.137196-4.274392q0-3.218668 6.411587-6.411587l28.144036-23.406156a17.32931 17.32931 0 0 1 6.566083-1.905451c2.137196 0 4.274391 0 4.274392 2.137195a16.659827 16.659827 0 0 1 4.171394 16.814323" fill="#FFFFFF" p-id="3354"></path><path d="M984.809495 680.812714a23.380406 23.380406 0 0 1-10.299738-2.137196l-12.874674-4.274391 2.137196-2.137196a4.557634 4.557634 0 0 1 4.222893-4.274392 9.424261 9.424261 0 0 1 10.299738 0l2.137196-6.411587-34.349628-10.505733-2.137195 4.222893c4.222893 2.188694 8.497284 4.32589 8.497284 6.411587 2.188694 2.137196 2.188694 4.222893 0 8.548783v2.034198l-10.299739-4.274391c-4.274391 0-6.463086-2.085697-6.463085-4.222893v-6.540334a21.6552 21.6552 0 0 1 8.548782-10.299739 19.440756 19.440756 0 0 1 15.011869-6.411587l-2.188694-6.463086-21.423456 2.188695-18.848522 51.498692 8.651781 1.699457c2.137196-2.137196 2.137196-4.274391 4.274391-4.274391 2.034198-2.137196 6.257091 0 10.299739 2.188694l27.732046 8.548783 8.548782 4.222893c2.137196 2.085697 2.137196 4.222893 2.137196 8.497284l8.806277 2.137196 10.299738-32.212432-8.548783-2.137196z" fill="#FFFFFF" p-id="3355"></path><path d="M21.294709 464.260712l57.961779-8.548783 2.137195-15.011869-46.83806-27.706296h-2.137196a15.938845 15.938845 0 0 1-8.548783-12.874673l-8.523034-2.188695-6.463086 27.706297h10.557232c0-2.085697 0-4.274391 2.137196-4.274392a2.909676 2.909676 0 0 1 4.119896 0h2.188694l8.497284 4.274392-4.274391 19.440756-10.299739 1.931201H19.440756c-2.137196 0-2.137196-2.137196-4.274391-2.137196v-6.514584l-8.497284-2.137196-6.231342 32.160934 10.531482 2.291691c0-4.222893 3.93965-6.411587 10.299739-6.411587m23.895393-34.401126l19.440757 12.874673-21.423456 2.137195z" fill="#FFFFFF" p-id="3356"></path><path d="M632.790183 999.100382c-2.188694 0-4.274391-2.188694-6.411587-4.377389l-17.046067-14.96037a23.406156 23.406156 0 0 0 10.299738-8.497284 14.18789 14.18789 0 0 0 2.137196-12.874673 21.577952 21.577952 0 0 0-8.548783-15.011869 35.07061 35.07061 0 0 0-21.423456 0l-38.881513 4.222893 2.420439 10.840475c4.274391-2.137196 6.411587 0 6.411587 0a16.350835 16.350835 0 0 1 4.274391 10.299738l4.274392 27.732046c2.137196 6.179843 2.137196 10.299738 0 10.299738 0 2.085697-2.137196 4.274391-6.411587 4.274392l2.240193 8.111044 32.160933-4.274392v-10.299738c-4.274391 2.188694-6.411587 0-6.411587 0a16.350835 16.350835 0 0 1-4.274392-10.299739l-2.137195-8.548782 6.411587-2.137196 27.732046 27.732046 19.440756-3.733656v-8.497284c-2.085697 2.188694-4.171394 0-6.360088 0m-29.688997-28.324281a131.604908 131.604908 0 0 1-15.011868 4.222893h-2.574935l-1.647958-12.642929c-2.188694-4.274391-2.188694-6.411587 0-8.548783a7.390062 7.390062 0 0 1 4.222893-2.137195 24.976866 24.976866 0 0 1 12.874673 2.188694c2.085697 0 4.274391 4.274391 4.274391 6.411587a19.415007 19.415007 0 0 1-2.137196 10.505733" fill="#FFFFFF" p-id="3357"></path><path d="M478.11386 955.764233a22.118688 22.118688 0 0 0-17.046067-8.317039l-36.486823-4.274392v8.935023c2.188694 0 4.274391 2.137196 6.411587 2.137196v12.642929l-4.222893 27.732046a99.855965 99.855965 0 0 1-2.137196 10.299738c-2.137196 0-4.274391 2.137196-6.411587 0l-2.188694 10.454235 32.315429 1.9827 2.137196-8.548783c-4.274391 0-6.411587 0-6.411587-2.137196v-19.440756l12.874673 2.137195a22.83967 22.83967 0 0 0 16.91732-3.682156 11.793201 11.793201 0 0 0 8.548783-12.874673 15.732851 15.732851 0 0 0-4.274391-17.097566m-12.720177 12.59143c0 4.171394-2.085697 8.497284-4.274392 8.497284a11.947697 11.947697 0 0 1-12.874673 2.137196h-2.188694l2.137195-15.011869c0-4.274391 0-6.411587 2.188695-8.445785h4.222893a11.072219 11.072219 0 0 1 10.866224 11.252464 11.355462 11.355462 0 0 1-0.128747 1.57071" fill="#FFFFFF" p-id="3358"></path><path d="M798.075236 923.500302c-2.188694 0-4.274391-4.274391-6.411587-8.548783l-15.063367-23.612151a19.955743 19.955743 0 0 1-6.411588-10.299738c2.137196-2.137196 2.137196-4.274391 4.274392-4.274392l-4.274392-8.548783-27.732045 17.046068 4.222892 8.548783a8.008047 8.008047 0 0 1 6.463086-2.137196l8.548783 8.497284 15.011869 23.663649c2.137196 6.257091 4.274391 8.445786 4.274391 10.299739s-2.137196 4.274391-4.274391 6.411587l4.274391 6.30859 27.732046-16.994569-4.222892-8.548783a7.8793 7.8793 0 0 1-6.411588 2.188695z" fill="#FFFFFF" p-id="3359"></path><path d="M544.572923 958.107423a34.24663 34.24663 0 0 0-25.749346-8.548783 35.508348 35.508348 0 0 0-25.59485 10.454235 31.568698 31.568698 0 0 0-8.548783 27.732046 32.959163 32.959163 0 0 0 10.299738 27.732045 33.989137 33.989137 0 0 0 22.788172 8.497285h2.806678a35.4311 35.4311 0 0 0 25.749346-10.299739 39.705492 39.705492 0 0 0 8.548783-27.732046 40.864212 40.864212 0 0 0-10.299738-27.732046m-10.582981 48.589017a15.835848 15.835848 0 0 1-12.874673 8.548783 12.874673 12.874673 0 0 1-12.874674-6.411588 36.383826 36.383826 0 0 1-6.463085-21.423456 53.893382 53.893382 0 0 1 4.274391-21.423456 11.715953 11.715953 0 0 1 11.40696-8.600281h1.544961a18.848521 18.848521 0 0 1 12.874673 6.411587 63.703883 63.703883 0 0 1 4.222893 21.474955 33.165158 33.165158 0 0 1-2.137196 21.629451z" fill="#FFFFFF" p-id="3360"></path><path d="M744.465098 952.906055a29.997988 29.997988 0 0 1-6.411588-8.548783l-19.440756-36.203581a14.18789 14.18789 0 0 1 12.874673-2.137195 32.315429 32.315429 0 0 1 12.874673 6.463086l4.274392-6.463086-19.440757-15.011869-47.481794 25.59485 4.866626 21.423456h6.463086c0-6.463086 0-10.531483 2.137196-12.874673 0-4.222893 4.222893-6.411587 6.411587-8.548783h2.188695l19.440756 34.632871c2.085697 6.257091 4.222893 8.445786 4.222893 10.299738-2.188694 2.137196-2.188694 4.274391-6.411587 6.411587l4.222892 6.257091 30.075237-15.011868-4.274392-6.411588z" fill="#FFFFFF" p-id="3361"></path><path d="M55.979079 339.47938a42.666667 42.666667 0 0 0 15.011868 2.137196 66.768055 66.768055 0 0 0 15.011869-12.874673 2.085697 2.085697 0 0 0 1.544961-0.592235 2.162945 2.162945 0 0 0 0.592235-1.544961c8.497284-8.394287 12.874673-12.668678 17.046067-10.299738 2.137196 0 2.137196 2.188694 2.137196 4.32589 2.188694 2.137196 0 4.222893 0 8.548783-2.085697 2.085697-4.866626 6.849326-8.497284 8.497284a39.345001 39.345001 0 0 1-15.011869 2.188695v6.308589l21.26896 6.69483 4.274391-6.463085-4.222892-2.085698 12.488432-12.874673a26.290082 26.290082 0 0 0 0-17.046067 21.938443 21.938443 0 0 0-10.299738-13.080668 23.174412 23.174412 0 0 0-10.299738-2.188694h-8.548783c0 2.137196-2.574935 2.574935-4.222893 4.274391a30.899215 30.899215 0 0 1-8.497284 8.497285 2.085697 2.085697 0 0 1-2.188695 1.931201c-6.463086 8.497284-10.531483 10.454235-15.011869 8.497284a4.866626 4.866626 0 0 1-4.222893-4.274392c-2.188694-4.119895 0-6.257091 0-10.299738a21.397707 21.397707 0 0 1 10.531483-8.497284 62.802655 62.802655 0 0 1 19.440756-4.274392v-5.973848l-28.32428-7.209817-2.137196 6.257091 4.222893 2.188694a30.178234 30.178234 0 0 0-8.548783 6.257092 11.40696 11.40696 0 0 0-4.222893 8.548783 22.685174 22.685174 0 0 0-2.188694 19.440756 28.710521 28.710521 0 0 0 12.874673 14.96037" fill="#FFFFFF" p-id="3362"></path><path d="M274.230537 912.479582l8.497284-25.749347-4.222892-4.274391-4.274392 4.274391c0-4.171394-2.188694-6.360089-2.188694-8.548783-2.137196-2.137196-4.222893-4.32589-6.411588-4.32589a29.637497 29.637497 0 0 0-25.749346-6.411587c-10.299738 0-17.046067 6.463086-25.59485 15.011869a47.996781 47.996781 0 0 0-8.548783 27.732046 37.465299 37.465299 0 0 0 12.874673 23.61215 34.478375 34.478375 0 0 0 19.440757 6.411587v0.489238a26.39308 26.39308 0 0 0 21.26896-4.377389l-4.274392-8.317039a30.899215 30.899215 0 0 1-15.011869 4.32589 30.461477 30.461477 0 0 1-12.874673-4.32589 19.440756 19.440756 0 0 1-6.411587-15.011869 38.21203 38.21203 0 0 1 8.497284-19.440756 44.932609 44.932609 0 0 1 17.046067-12.874673 12.59143 12.59143 0 0 1 15.011869 2.137196 11.81895 11.81895 0 0 1 6.463086 10.299738 48.177027 48.177027 0 0 1-2.188694 17.046067z" fill="#FFFFFF" p-id="3363"></path><path d="M342.826795 927.336954a27.96379 27.96379 0 0 0-19.440756-21.423456 32.212432 32.212432 0 0 0-27.732046-2.188694 37.4138 37.4138 0 0 0-21.423456 19.440756 49.61899 49.61899 0 0 0-4.274391 30.023738 60.922953 60.922953 0 0 0 19.440756 21.423456 43.207403 43.207403 0 0 0 27.732046 2.085697 41.73969 41.73969 0 0 0 21.423456-21.423456 33.705894 33.705894 0 0 0 4.274391-27.938041z m-21.371957 19.440757a28.324281 28.324281 0 0 1-12.874673 17.046067 13.209415 13.209415 0 0 1-15.011869 2.137196 27.036814 27.036814 0 0 1-8.548783-12.874673 54.588614 54.588614 0 0 1 6.514585-21.320459 58.373768 58.373768 0 0 1 12.874673-17.046067v0.38624a32.547174 32.547174 0 0 1 9.269765-2.574935 7.390062 7.390062 0 0 1 5.690605 2.420439 10.994971 10.994971 0 0 1 8.548783 10.454234 48.614766 48.614766 0 0 1-6.463086 21.423456z" fill="#FFFFFF" p-id="3364"></path><path d="M392.471535 931.714343l-36.435325-10.299738-2.188694 9.03802a4.866626 4.866626 0 0 1 4.222892 4.274392c2.188694 1.853953 0 3.991149 0 10.299738l-8.26554 27.732046-4.506135 8.703279c-2.085697 2.137196-4.274391 2.137196-8.548783 0l-2.137196 8.497284 32.212432 10.299739 2.36894-9.321264c-2.085697-2.085697-4.222893-2.085697-4.222893-4.274391-2.188694-1.905452 0-6.179843 0-10.299738l4.222893-8.548783 6.463086 2.137195 10.299738 34.401127 19.440757 6.128344 4.274391-8.548783c-2.137196 0-4.274391-2.137196-6.411587-2.137195a7.853551 7.853551 0 0 1-2.137196-6.463086l-8.806276-21.577952a18.024542 18.024542 0 0 0 12.874673-4.222893 14.96037 14.96037 0 0 0 8.497284-10.299739 18.024542 18.024542 0 0 0-4.222893-15.011869 26.290082 26.290082 0 0 0-17.097565-10.454234m-4.325891 27.989539c-2.137196 2.137196-6.411587 2.137196-12.874673 0h-2.188694l-2.137196-2.137196 4.32589-12.874673c0-2.188694 2.085697-4.274391 4.274392-6.411587h6.463086a32.572923 32.572923 0 0 1 8.548783 6.411587 15.990344 15.990344 0 0 1 2.137195 8.548783c-2.137196 4.32589-4.274391 6.463086-8.548783 6.463086" fill="#FFFFFF" p-id="3365"></path><path d="M875.555019 783.707101c-2.137196-2.137196 0-4.274391 2.137196-6.411587l-6.411587-4.274391-17.046068 17.046067 6.411588 6.463086c2.188694-2.137196 4.274391-4.274391 6.411587-4.274392a39.37075 39.37075 0 0 0 8.548783 6.411587l14.857373 15.166365-47.378797-12.874673-19.440757 21.474955 6.952324 4.32589a7.956548 7.956548 0 0 1 6.411587-2.188694c2.085697 0 4.171394 2.188694 8.497284 6.411587l21.474955 19.440756c4.222893 4.222893 6.411587 6.411587 6.411587 8.548783a7.956548 7.956548 0 0 1-2.188694 6.463086l6.514584 6.463086 17.046067-19.440756-6.411587-4.274392a7.853551 7.853551 0 0 1-6.463086 2.137196c-2.085697 0-4.171394-2.188694-8.497284-6.411587l-25.749346-23.612151 61.798431 14.96037 8.548783-8.497284-36.25508-34.555623c-4.119895-4.171394-6.257091-6.360089-6.257091-8.497284" fill="#FFFFFF" p-id="3366"></path><path d="M824.107825 837.445987a34.040636 34.040636 0 0 0-27.732045 6.463086 31.053712 31.053712 0 0 0-12.874674 25.749346 41.482197 41.482197 0 0 0 8.497285 25.59485 34.993361 34.993361 0 0 0 24.770871 17.046067 34.014886 34.014886 0 0 0 29.14826-8.317039 30.461477 30.461477 0 0 0 12.874673-23.663649 34.941863 34.941863 0 0 0-8.548783-27.732046 41.044458 41.044458 0 0 0-26.135587-15.166365m14.57413 60.098974a17.844297 17.844297 0 0 1-15.011868 2.137196 92.697646 92.697646 0 0 1-17.046068-15.011869 38.830014 38.830014 0 0 1-8.548783-19.440756 9.759002 9.759002 0 0 1 4.325891-13.029169 10.917723 10.917723 0 0 1 7.956548-3.450413 21.26896 21.26896 0 0 1 6.952323 1.416214 44.90686 44.90686 0 0 1 17.046067 12.874674 35.122108 35.122108 0 0 1 8.548783 19.440756 13.363911 13.363911 0 0 1-4.042647 15.063367z" fill="#FFFFFF" p-id="3367"></path><path d="M536.693623 663.431905a698.760008 698.760008 0 0 1-124.189097-5.870851 479.916315 479.916315 0 0 0 22.298934 58.29652 663.715148 663.715148 0 0 0 86.723798 5.690605 540.169785 540.169785 0 0 0 330.389861-100.911687c-53.455643 77.248039-195.33454 133.072621-362.653792 133.072621q-17.844297 0-35.173607-0.875478a278.968417 278.968417 0 0 0 142.419634 127.150272A373.545765 373.545765 0 0 0 888.867431 517.561859v-2.188695c-49.181251 80.131965-186.68276 141.338161-352.173808 148.058741" fill="#FFFFFF" p-id="3368"></path><path d="M382.04305 706.716556a529.612553 529.612553 0 0 1-15.295112-57.137799 505.382418 505.382418 0 0 1-69.188493-20.599477 542.641722 542.641722 0 0 0 12.720177 56.854556 568.597063 568.597063 0 0 0 71.763428 20.88272" fill="#FFFFFF" p-id="3369"></path><path d="M692.992154 73.694629v0.283243a97.847516 97.847516 0 0 1 2.36894 10.531482v-0.231744a77.016295 77.016295 0 0 0 19.440757-4.274391 105.726816 105.726816 0 0 0 17.046067-6.411588 125.141823 125.141823 0 0 1 16.968819-10.454234 21.26896 21.26896 0 0 1-8.497284-10.299739l-2.137196 2.137196a93.315631 93.315631 0 0 1-15.063367 8.497284 149.165963 149.165963 0 0 1-17.046068 6.411588 35.894589 35.894589 0 0 1-15.011868 2.137195l1.982699 1.9827z" fill="#FFFFFF" p-id="3370"></path><path d="M140.024945 566.35687h0.283242a324.441762 324.441762 0 0 0 139.355462 107.761014 547.405351 547.405351 0 0 1-14.18789-58.29652 250.309394 250.309394 0 0 1-93.882116-72.098169 374.240998 374.240998 0 0 0 90.122712 50.880708 628.696037 628.696037 0 0 1-6.69483-91.641924c0-142.213639 46.348823-265.784752 114.764836-329.025145A370.790585 370.790585 0 0 0 139.973446 566.485617" fill="#FFFFFF" p-id="3371"></path><path d="M165.594045 244.773285l8.497285 8.368538 8.548783-8.497285-2.137196-2.188694 45.112854-45.087105v2.188694l8.497285-10.299738-8.497285-6.411588-49.309998-47.481794-8.548782-8.548783-6.411588 8.548783-47.430295 47.481794-6.463086 8.548783 6.66908 6.025347z m1.931201-100.731442l49.361497 47.559042-42.949909 45.087105-49.412996-47.121303z" fill="#FFFFFF" p-id="3372"></path><path d="M220.337156 234.73104a402.359284 402.359284 0 0 0 3.167169 569.060551 411.397304 411.397304 0 0 0 578.201569-0.334741 400.55683 400.55683 0 0 0 4.892376-566.485617q-2.420439-2.574935-4.892376-4.892376A411.500302 411.500302 0 0 0 223.504325 231.486622z m10.299738 3.991149a401.32931 401.32931 0 0 1 563.627439 0.489237l4.866627 4.866627a390.30859 390.30859 0 0 1-4.866627 551.962985 401.432307 401.432307 0 0 1-563.627439 0.489238l-3.244418-3.244418a391.956548 391.956548 0 0 1 3.244418-554.228928z" fill="#FFFFFF" p-id="3373"></path><path d="M397.981895 747.606518a634.360893 634.360893 0 0 1-71.377188-13.41541 373.77751 373.77751 0 0 0 72.587407 118.16375 275.028767 275.028767 0 0 1-99.546972-125.347817 391.596057 391.596057 0 0 1-133.8966-67.283042 375.296721 375.296721 0 0 0 345.76222 229.426675h1.544961c4.506136 0 9.244015-0.283243 13.853148-0.283243-52.193925-19.131764-97.615771-70.604707-128.746731-141.235164" fill="#FFFFFF" p-id="3374"></path><path d="M712.355663 133.767854a176.305773 176.305773 0 0 1 25.749346 10.299738c0 4.171394 2.137196 6.360089 0 8.497284v4.866627l4.222893-2.137196a37.645544 37.645544 0 0 0 10.299738-2.137196 316.279219 316.279219 0 0 0-4.222892-36.486823h-12.668679v6.617582c2.137196 2.034198 2.137196 4.171394 2.137196 10.299738-10.531483-6.30859-23.663649-10.454235-34.349628-17.046067a30.435727 30.435727 0 0 1 12.874673-4.274392l21.526454-10.299738a6.360089 6.360089 0 0 0 4.222892-2.137196 45.67934 45.67934 0 0 1-8.548783-12.874673l-2.137195 2.137196a26.058338 26.058338 0 0 1-6.411587 4.274391l-12.874674 6.411588a16.222088 16.222088 0 0 1-10.299738 4.274391c-2.085697 2.085697-6.360089 2.085697-8.497284 4.274391h-8.548783v4.377389a28.324281 28.324281 0 0 1-2.137196 10.299739c4.119895 0 6.257091 2.137196 10.299738 2.137196a90.122712 90.122712 0 0 0 19.286261 8.548783" fill="#FFFFFF" p-id="3375"></path><path d="M553.894186 77.067793l2.137196-12.874673c2.137196 2.188694 4.274391 4.274391 4.274391 6.411587a2.137196 2.137196 0 0 1 1.544961 0.643734 2.085697 2.085697 0 0 1 0.592235 1.493462c4.274391-4.274391 8.497284-6.360089 8.497284-8.548783 2.137196 0 2.137196-2.085697 4.274392-4.222893v8.600282l12.874673-6.463086c-2.137196-4.557634-4.222893-10.737477-6.411587-14.96037l2.188694-2.188695c0-2.085697 2.085697-4.274391 4.222893-8.497284 2.137196 4.222893 4.274391 6.411587 4.274392 8.497284s2.137196 4.274391 2.137195 8.548783l-2.137195 4.274392a28.324281 28.324281 0 0 0-6.411588 8.497284 29.199759 29.199759 0 0 1-8.368537 6.617582c2.188694 4.274391 4.274391 4.274391 6.411587 6.463086l2.188694 2.137196c2.137196 0 4.222893-2.085697 6.411588-4.274392a76.166566 76.166566 0 0 0 8.497284-10.299738l2.137196 6.463086v6.411587a120.1207 120.1207 0 0 1 10.454234-8.497284v-2.317442a136.471535 136.471535 0 0 0-6.360088-15.217863l4.222892-6.411587c0-2.085697 2.188694-4.274391 2.188695-8.548783l2.137196-6.411587a2.240193 2.240193 0 0 1 0.643733-1.493463 2.265942 2.265942 0 0 1 1.544961-0.592235c-4.377389-2.085697-8.65178-2.085697-12.874673-4.222892l-2.137196 2.137195a23.921143 23.921143 0 0 1-2.188694 10.63448c0-2.137196-2.137196-4.274391-4.274392-6.411587h-2.137195c0 2.137196-4.222893 2.137196-6.411588 4.274392l2.188695-6.463086v-2.36894c0-2.085697 2.137196-2.085697 2.137196-4.274392a22.659425 22.659425 0 0 1-12.874674-4.171394v4.274392a6.900825 6.900825 0 0 0-2.188694 4.274391 7.724804 7.724804 0 0 1-2.137196 6.411588A11.329712 11.329712 0 0 0 570.863005 25.749346c-2.188694 0-4.274391 2.188694-6.411587 2.188695h-2.137196l2.137196-12.874673 57.858781 8.548782-8.548783 60.098975c-2.137196 2.085697-2.137196 2.085697-2.137196 4.274391h-4.274391c-2.188694 0-4.274391-2.188694-6.411587-2.188694V90.122712a7.724804 7.724804 0 0 1 2.137196 6.411587v4.274391l13.312412-0.540736c4.222893 0 6.411587-2.085697 6.411587-4.274391 2.137196 0 2.137196-2.034198 2.137195-4.222893l10.299739-66.510561 2.137196-10.685979-12.874673-2.188694-57.961779-10.299739L553.894186 0l-2.137195 12.874673-10.531483 62.442165-2.188694 13.157916 12.874673 1.493462z m8.26554-46.348823l2.137196 4.274391a90.843693 90.843693 0 0 0 4.274392 12.874674 29.174009 29.174009 0 0 1-6.463086 8.548783c0 2.137196-2.085697 4.222893-6.411587 6.411587z" fill="#FFFFFF" p-id="3376"></path><path d="M293.903038 606.036612a545.88614 545.88614 0 0 0 67.540535 16.711326 618.396299 618.396299 0 0 1-7.724804-98.439751c0-161.010662 60.098974-298.383424 143.810098-349.830617-66.510561 70.784953-109.408972 188.871454-109.408972 319.703882a563.163951 563.163951 0 0 0 15.78435 134.591833 653.080668 653.080668 0 0 0 68.029772 3.656407c10.582981 0 21.191712-0.283243 31.774694-0.77248 178.468719-5.639107 327.583182-83.659626 377.717159-183.747335A375.940455 375.940455 0 0 0 512.41199 146.153289c-4.866626 0-9.321263 0.231744-13.904647 0.231744-119.502716 40.96721-209.110441 198.553209-209.110441 386.523436a595.170388 595.170388 0 0 0 4.506136 73.179642z" fill="#FFFFFF" p-id="3377"></path><path d="M316.63971 95.427077l6.411588-12.874673a20.934218 20.934218 0 0 0-8.548783-2.137196 7.724804 7.724804 0 0 1-4.274392-2.188694l-2.137196 6.411587a116.515792 116.515792 0 0 0-8.548783 17.046067l-2.137195-2.137196c-2.085697 0-4.171394-2.188694-8.497285-2.188694a47.610541 47.610541 0 0 0 6.411588-10.299738h-4.274392l12.874673-6.411588 8.548783-4.274391-4.222893-10.299739-8.548782 4.274392-38.881513 21.423456-8.162543 1.95695 6.411587 10.454235 6.463086-4.274392 12.874673-6.411587a118.987729 118.987729 0 0 1-15.011869 17.046067c-4.119895 2.137196-8.445786 6.411587-10.299738 6.411587a26.058338 26.058338 0 0 1 6.411587 4.274392l4.222893 4.222893 19.440756-19.440757-6.746328 13.02917-8.497285 8.497284c-1.596459 1.647958-6.411587 4.274391-8.548783 6.463086a25.749346 25.749346 0 0 1 6.411588 4.222892l4.274391 4.274392a71.377188 71.377188 0 0 0 12.874673-17.046067 93.856367 93.856367 0 0 0 10.299739-15.011869l2.137195 2.188694a198.11547 198.11547 0 0 1-10.299738 17.046068l0.540736-0.386241a106.988533 106.988533 0 0 1-21.474955 23.612151l4.274392 2.188694v-0.231744c2.188694 0 4.274391 2.291692 6.179843 4.866627l10.299738-10.454235c2.137196-4.32589 6.360089-8.600282 8.548783-12.874673a120.249447 120.249447 0 0 0 8.703279-14.908872l2.137196 2.188695v3.991148c2.188694 2.085697 2.188694 4.222893 0 4.222893 0 2.188694-2.085697 4.32589-8.497284 6.463086l4.222893 2.137196q3.218668 0 6.411587 6.411587c6.514585-4.171394 10.582981-6.257091 12.874673-10.299738v-8.703279c-2.137196-2.137196-2.137196-4.222893-4.274391-8.548783a29.997988 29.997988 0 0 1-4.094147-6.411588c0-2.137196-2.137196-2.137196-2.137195-4.274391l2.137195-4.222893c4.119895 4.119895 6.411587 8.445786 10.299739 10.299739s6.257091 4.222893 10.299738 4.222892a138.24824 138.24824 0 0 0 19.440757 4.274392v-8.497284a7.8793 7.8793 0 0 0 2.137196-6.411588h-17.406558l-12.874674-6.257091z" fill="#FFFFFF" p-id="3378"></path><path d="M240.498894 101.246429l2.188694 4.32589 10.582981-4.222892-2.34319-6.514585-2.137196-6.411587 57.781533-30.126735 4.377389 6.514584 2.188694 4.274392 12.874673-6.411587-4.377389-4.377389-4.222892-10.299739-4.274392-6.411587-8.548783 6.514585-26.187085 12.050694a2.059948 2.059948 0 0 0 0.489238-1.364716c-2.188694-2.137196-6.463086-2.137196-12.874673-4.222892-2.137196 4.171394-4.274391 6.360089-4.274392 8.497284l-2.137196 2.188694c2.137196 0 4.222893 2.188694 6.411588 2.188695l-23.612151 12.874673-10.454234 4.274391 2.188694 6.411587z" fill="#FFFFFF" p-id="3379"></path><path d="M1015.142225 505.021927a7.724804 7.724804 0 0 1-2.137196 6.411587 42.100181 42.100181 0 0 1-10.299738 2.188695h-12.874673l-2.137196-23.612151 13.080668-2.240193c6.257091 0 10.299738 0 10.299738 2.137196a4.866626 4.866626 0 0 1 4.274392 4.274391h7.724804l-2.137196-32.212432h-10.299739c2.137196 4.274391 0 6.411587 0 6.411588-2.188694 2.188694-6.463086 2.188694-12.874673 2.188694l-27.732046 2.188694h-10.299738c-2.137196-2.188694-2.137196-2.188694-2.137196-6.411587h-10.299738l1.828203 34.014887 8.497284-2.137196c0-2.188694 2.188694-4.274391 4.274392-6.411587a38.624019 38.624019 0 0 1 17.046067-2.137196l2.188695 25.59485h-8.548783a15.964595 15.964595 0 0 1-10.299739-2.188694c-2.137196 0-2.137196-2.137196-2.137196-4.222893h-8.445785l2.137196 32.160933 7.8793 0.283243c0-4.274391 0-6.411587 2.188694-6.411587 1.853953-2.188694 4.119895-2.188694 10.299738-2.188695l27.732046-2.137195h13.106418c0 2.137196 2.188694 4.222893 2.188694 6.411587h8.497284l-2.188694-32.212432z" fill="#FFFFFF" p-id="3380"></path><path d="M1004.147254 541.560249l-4.222893 6.411588a54.253872 54.253872 0 0 1 10.299739 12.874673c1.647958 3.656407 4.274391 6.30859 4.274391 10.299738a24.976866 24.976866 0 0 1-10.299738 15.011869 47.25005 47.25005 0 0 1-19.440757 2.137196 32.006437 32.006437 0 0 1-21.423456-6.463086 19.440756 19.440756 0 0 1-6.463086-14.96037c0-4.119895 2.188694-6.30859 6.463086-10.299739a34.555623 34.555623 0 0 1 14.57413-8.548783v-6.411587l-27.732046 6.411587-2.137195 4.377389 4.222892 2.188695h0.386241c0 2.137196-2.188694 4.222893-4.274392 6.411587v8.548783a28.118286 28.118286 0 0 0 6.411587 25.59485 45.2931 45.2931 0 0 0 27.732046 10.299738 32.856166 32.856166 0 0 0 7.724804 1.364716 30.899215 30.899215 0 0 0 20.11024-7.441561 38.624019 38.624019 0 0 0 10.299738-42.898411 39.293502 39.293502 0 0 0-16.711326-15.011869" fill="#FFFFFF" p-id="3381"></path><path d="M204.063569 193.532086l6.411587-6.463086-6.411587-6.411587-6.257091 6.411587v-8.497284h-12.874674l6.411588-4.274392-8.497285-8.548782-4.222892 6.463085-8.548783 8.548783-8.548783-6.411587 10.299738-10.299738 6.30859-6.566084-8.548783-6.411587-6.463086 6.411587-27.654798 27.732046-6.411587 6.411587 8.548783 8.497285 6.411587-8.497285 8.806277-8.368537 8.548783 6.30859-8.548783 8.497284-6.463086 6.411587 8.548783 6.463086 6.411587-6.463086 6.411587-6.411587 10.299739 8.548783-8.497285 10.299738-8.548783 6.566084 8.548783 6.360088 6.900825-6.360088z m-28.324281-6.30859l6.257091-4.377389a7.8793 7.8793 0 0 1-1.931201 6.669081h12.874673l-6.617582 8.368538z" fill="#FFFFFF" p-id="3382"></path><path d="M394.814725 70.939449l2.137196 8.497284 12.874673-2.188694 19.440757-4.222893 2.188694 15.011869c0 2.188694 2.137196 4.274391 2.137196 6.411587a7.261316 7.261316 0 0 0 3.93965 2.085697 4.866626 4.866626 0 0 0 3.398913 1.699457 11.870449 11.870449 0 0 0 4.866627-1.647958 42.434923 42.434923 0 0 0 15.011869-2.137196c6.514585 0 12.874673 0 15.011869-2.188695 4.274391 0 6.411587 0 6.411587-2.137195a4.866626 4.866626 0 0 0 4.274391-4.274392c2.085697 0 2.085697-6.463086 4.274392-12.874673a55.386844 55.386844 0 0 1-15.011869-4.32589v10.299738c-2.188694 0-4.274391 2.137196-6.411587 2.137196a22.607926 22.607926 0 0 1-8.548783 2.137196l-12.874673 2.188694c-2.085697 0-4.222893 0-4.222893-2.188694v-2.034198l-2.188695-10.299739 21.423456-2.137196v2.137196l12.874674-2.137196-2.034199-10.299738-6.411587-41.044458V9.089519l-8.548783 2.137196-27.757795 4.274391V9.089519l-2.137196-8.548783-12.874673 2.188695 2.188694 8.497284v6.411587l-21.423456 2.188695-10.299738 2.188694 1.9827 8.111044z m45.138604-10.299739l-2.137195-10.582981 21.423456-4.119895 2.34319 10.299738z m17.149065-38.624019l2.188694 12.874673-23.663649 4.274392-2.137196-12.874674z m-30.023738 40.709716l-19.440756 4.274392-2.162945-12.642929 19.440756-2.034199z m-6.463086-34.349627l2.085697 12.874673-19.440756 2.137195-1.931201-10.737477z" fill="#FFFFFF" p-id="3383"></path></svg>