<?xml version="1.0" standalone="no"?><!DOCTYPE svg PUBLIC "-//W3C//DTD SVG 1.1//EN" "http://www.w3.org/Graphics/SVG/1.1/DTD/svg11.dtd"><svg t="1682219818322" class="icon" viewBox="0 0 1024 1024" version="1.1" xmlns="http://www.w3.org/2000/svg" p-id="8286" xmlns:xlink="http://www.w3.org/1999/xlink" width="400" height="400"><path d="M284.444444 170.666667m28.444445 0l56.888889 0q28.444444 0 28.444444 28.444444l0 113.777778q0 28.444444-28.444444 28.444444l-56.888889 0q-28.444444 0-28.444445-28.444444l0-113.777778q0-28.444444 28.444445-28.444444Z" fill="#0D8678" p-id="8287"></path><path d="M625.777778 170.666667m28.444444 0l56.888889 0q28.444444 0 28.444445 28.444444l0 113.777778q0 28.444444-28.444445 28.444444l-56.888889 0q-28.444444 0-28.444444-28.444444l0-113.777778q0-28.444444 28.444444-28.444444Z" fill="#0D8678" p-id="8288"></path><path d="M312.888889 796.444444h56.888889a28.444444 28.444444 0 0 1 28.444444 28.444445V910.222222H284.444444v-85.333333a28.444444 28.444444 0 0 1 28.444445-28.444445zM654.222222 796.444444h56.888889a28.444444 28.444444 0 0 1 28.444445 28.444445V910.222222h-113.777778v-85.333333a28.444444 28.444444 0 0 1 28.444444-28.444445z" fill="#0D8678" p-id="8289"></path><path d="M910.222222 0H113.777778a113.777778 113.777778 0 0 0-113.777778 113.777778v796.444444a113.777778 113.777778 0 0 0 113.777778 113.777778h256a28.444444 28.444444 0 0 0 28.444444-28.444444V910.222222H170.666667a56.888889 56.888889 0 0 1-56.888889-56.888889V170.666667a56.888889 56.888889 0 0 1 56.888889-56.888889h682.666666a56.888889 56.888889 0 0 1 56.888889 56.888889v682.666666a56.888889 56.888889 0 0 1-56.888889 56.888889H540.444444a28.444444 28.444444 0 0 0-28.444444 28.444445v56.888889a28.444444 28.444444 0 0 0 28.444444 28.444444H910.222222a113.777778 113.777778 0 0 0 113.777778-113.777778V113.777778a113.777778 113.777778 0 0 0-113.777778-113.777778z" fill="#0D8678" p-id="8290"></path><path d="M824.888889 398.222222h-625.777778a28.444444 28.444444 0 0 0-28.444444 28.444445v284.444444a28.444444 28.444444 0 0 0 28.444444 28.444445h625.777778a28.444444 28.444444 0 0 0 28.444444-28.444445v-284.444444a28.444444 28.444444 0 0 0-28.444444-28.444445zM227.555556 568.888889l88.746666-113.777778h56.888889L284.444444 568.888889z m86.471111 113.777778l170.666666-227.555556h56.888889l-170.666666 227.555556z m173.511111 0l170.666666-227.555556h56.888889l-170.666666 227.555556z m231.537778 0h-56.888889l80.782222-113.777778h56.888889z" fill="#0D8678" p-id="8291"></path></svg>