<?xml version="1.0" standalone="no"?><!DOCTYPE svg PUBLIC "-//W3C//DTD SVG 1.1//EN" "http://www.w3.org/Graphics/SVG/1.1/DTD/svg11.dtd"><svg t="1681820139256" class="icon" viewBox="0 0 1024 1024" version="1.1" xmlns="http://www.w3.org/2000/svg" p-id="6583" xmlns:xlink="http://www.w3.org/1999/xlink" width="400" height="400"><path d="M582.693914 475.603171a275.970041 275.970041 0 0 0 82.571241-296.018571 246.099076 246.099076 0 0 0-473.764268 0 276.104595 276.104595 0 0 0 82.571241 296.018571 447.167448 447.167448 0 0 0-263.052867 414.156892v89.388638a43.191801 43.191801 0 0 0 41.711708 44.492489h751.304104a40.724979 40.724979 0 0 0 29.646708-13.141431 45.344663 45.344663 0 0 0 12.199553-31.395909v-89.657746a447.346853 447.346853 0 0 0-263.142569-414.156892z m-154.288468-388.995313a168.282073 168.282073 0 0 1 156.44133 109.437168 186.85051 186.85051 0 0 1-35.881039 195.192852 161.195567 161.195567 0 0 1-183.486663 39.200035 179.001533 179.001533 0 0 1-104.144715-165.142481 173.260567 173.260567 0 0 1 167.071087-178.687574z m333.96277 847.689545H94.442677v-44.851299a359.348605 359.348605 0 0 1 165.949805-310.012176 317.278087 317.278087 0 0 1 335.981078 0 358.810389 358.810389 0 0 1 165.949805 310.012176v44.851299z m0 0l70.730498-474.975253a233.630415 233.630415 0 0 0 45.838028-212.236346 217.080286 217.080286 0 0 0-146.08068-152.942928 41.038938 41.038938 0 0 0-32.248084 4.48513 42.653585 42.653585 0 0 0-19.196356 26.910779 44.851299 44.851299 0 0 0 29.781263 54.628882 132.445885 132.445885 0 0 1 92.21427 118.900793 135.406071 135.406071 0 0 1-73.914941 132.535587 40.814682 40.814682 0 0 0-13.455389 9.867286l-1.03158 1.076431a43.640314 43.640314 0 0 0-6.234331 10.584906 50.547414 50.547414 0 0 0-2.466821 5.561562c-0.269108 0.986729-0.897026 1.794052-1.210985 2.870483a39.648548 39.648548 0 0 0 0 5.382155 44.851299 44.851299 0 0 0-0.269108 10.315799 32.741448 32.741448 0 0 0 0.941877 5.113048 46.331392 46.331392 0 0 0 1.749201 8.432044 41.711708 41.711708 0 0 0 32.427489 25.789497 263.50138 263.50138 0 0 1 189.003373 259.150804v68.846743a44.851299 44.851299 0 0 0 20.497043 39.469143 39.648548 39.648548 0 0 0 42.519031 0 44.851299 44.851299 0 0 0 20.497044-39.37944v-68.936446a359.1692 359.1692 0 0 0-179.405195-316.650169l-70.775349 475.19951z" fill="#0d867f" p-id="6584"></path></svg>