<?xml version="1.0" standalone="no"?><!DOCTYPE svg PUBLIC "-//W3C//DTD SVG 1.1//EN" "http://www.w3.org/Graphics/SVG/1.1/DTD/svg11.dtd"><svg t="1681820128770" class="icon" viewBox="0 0 1024 1024" version="1.1" xmlns="http://www.w3.org/2000/svg" p-id="6318" xmlns:xlink="http://www.w3.org/1999/xlink" width="400" height="400"><path d="M867.388235 924.190118v-308.043294l-212.028235-136.914824v444.958118h322.078118a38.731294 38.731294 0 1 1 0 77.462588H77.281882a38.731294 38.731294 0 0 1 0-77.462588H96.376471V274.432a77.402353 77.402353 0 0 1 53.609411-73.788235l404.781177-129.867294A77.101176 77.101176 0 0 1 655.36 144.564706v246.000941l1.566118-2.409412 252.144941 162.816c22.106353 14.275765 35.418353 38.851765 35.418353 65.174589v308.043294H867.388235z m-289.129411 0V144.564706L173.477647 274.432v649.697882H578.258824zM269.854118 382.012235c0-21.443765 17.347765-38.731294 38.731294-38.731294h134.565647a38.731294 38.731294 0 0 1 0 77.462588H308.585412a38.731294 38.731294 0 0 1-38.731294-38.731294z m0 174.260706c0-21.383529 17.347765-38.731294 38.731294-38.731294h134.565647a38.731294 38.731294 0 0 1 0 77.462588H308.585412a38.731294 38.731294 0 0 1-38.731294-38.731294z m0 174.260706c0-21.383529 17.347765-38.731294 38.731294-38.731294h134.565647a38.731294 38.731294 0 1 1 0 77.462588H308.585412a38.731294 38.731294 0 0 1-38.731294-38.731294z m424.05647 0c0-21.383529 17.347765-38.731294 38.731294-38.731294h38.189177a38.731294 38.731294 0 0 1 0 77.462588h-38.189177a38.731294 38.731294 0 0 1-38.731294-38.731294z" fill="#526ADE" p-id="6319"></path></svg>