<?xml version="1.0" standalone="no"?><!DOCTYPE svg PUBLIC "-//W3C//DTD SVG 1.1//EN" "http://www.w3.org/Graphics/SVG/1.1/DTD/svg11.dtd"><svg t="1682666685400" class="icon" viewBox="0 0 1024 1024" version="1.1" xmlns="http://www.w3.org/2000/svg" p-id="7746" xmlns:xlink="http://www.w3.org/1999/xlink" width="128" height="128"><path d="M756.8 32c54.4 0 99.2 44.8 99.2 99.2s-44.8 99.2-99.2 99.2c-32 0-60.8-14.4-80-40l-8-9.6-4.8-11.2c-4.8-12.8-8-25.6-8-38.4 1.6-54.4 46.4-99.2 100.8-99.2M240 260.8c64 0 123.2 28.8 163.2 78.4l8 9.6 8 12.8c19.2 32 28.8 68.8 28.8 105.6 0 32-8 64-22.4 92.8l-6.4 14.4-6.4 9.6c-38.4 57.6-104 91.2-172.8 91.2-115.2 0-208-92.8-208-208s92.8-206.4 208-206.4M848 704c80 0 144 64 144 144s-64 144-144 144-144-64-144-144c0-27.2 8-54.4 22.4-76.8l6.4-11.2 9.6-9.6C771.2 720 808 704 848 704M756.8 0c-73.6 0-131.2 59.2-131.2 131.2 0 17.6 3.2 35.2 11.2 51.2l-208 136c-43.2-56-112-91.2-187.2-91.2-132.8 0-240 107.2-240 240s107.2 240 240 240c83.2 0 155.2-41.6 198.4-105.6L700.8 752c-19.2 28.8-28.8 60.8-28.8 96 0 97.6 78.4 176 176 176s176-78.4 176-176-78.4-176-176-176c-51.2 0-96 22.4-128 56L454.4 576c16-32 25.6-68.8 25.6-107.2 0-44.8-12.8-86.4-33.6-123.2l206.4-134.4c24 32 62.4 52.8 105.6 52.8 73.6 0 131.2-59.2 131.2-131.2S830.4 0 756.8 0z" p-id="7747"></path></svg>