<?xml version="1.0" standalone="no"?><!DOCTYPE svg PUBLIC "-//W3C//DTD SVG 1.1//EN" "http://www.w3.org/Graphics/SVG/1.1/DTD/svg11.dtd"><svg t="1711271314332" class="icon" viewBox="0 0 1228 1024" version="1.1" xmlns="http://www.w3.org/2000/svg" p-id="13124" xmlns:xlink="http://www.w3.org/1999/xlink" width="239.84375" height="200"><path d="M1075.2 1024H153.6a153.6 153.6 0 0 1-153.6-153.6V409.6a102.4 102.4 0 0 1 102.4-102.4h870.4a51.2 51.2 0 0 1 0 102.4H102.4v460.8a51.2 51.2 0 0 0 51.2 51.2h921.6a51.2 51.2 0 0 0 51.2-51.2V256a51.2 51.2 0 0 0-51.2-51.2H512a102.4 102.4 0 0 1-72.704-30.208A102.4 102.4 0 0 1 409.6 102.4H204.8v51.2a51.2 51.2 0 0 1-102.4 0V102.4a102.4 102.4 0 0 1 102.4-102.4h204.8a102.4 102.4 0 0 1 102.4 102.4h563.2a153.6 153.6 0 0 1 153.6 153.6v614.4a153.6 153.6 0 0 1-153.6 153.6z" p-id="13125" fill="#ffffff"></path></svg>